0
SECTION
2
HEADER
9
$INSUNITS
70
4
9
$ACADVER
1
AC1014
9
$HANDSEED
5
FFFF
0
ENDSEC
0
SECTION
2
TABLES
0
TABLE
2
VPORT
5
8
100
AcDbSymbolTable
0
ENDTAB
0
TABLE
2
LTYPE
5
5
100
AcDbSymbolTable
0
LTYPE
5
14
100
AcDbSymbolTableRecord
100
AcDbLinetypeTableRecord
2
BYBLOCK
70
0
0
LTYPE
5
15
100
AcDbSymbolTableRecord
100
AcDbLinetypeTableRecord
2
BYLAYER
70
0
0
LTYPE
5
16
100
AcDbSymbolTableRecord
100
AcDbLinetypeTableRecord
2
DASHED
70
0
3
Dashed __ __ __ __ __ __ __ __ __ __ __ __ __ _
72
65
73
2
40
0.75
49
0.5
74
0
49
-0.25
74
0
0
ENDTAB
0
TABLE
2
LAYER
5
2
100
AcDbSymbolTable
70
2
0
LAYER
5
50
100
AcDbSymbolTableRecord
100
AcDbLayerTableRecord
2
0
70
0
62
7
6
CONTINUOUS
0
ENDTAB
0
TABLE
2
STYLE
5
3
100
AcDbSymbolTable
70
1
0
STYLE
5
11
100
AcDbSymbolTableRecord
100
AcDbTextStyleTableRecord
2
STANDARD
70
0
0
ENDTAB
0
TABLE
2
VIEW
5
6
100
AcDbSymbolTable
70
0
0
ENDTAB
0
TABLE
2
UCS
5
7
100
AcDbSymbolTable
70
0
0
ENDTAB
0
TABLE
2
APPID
5
9
100
AcDbSymbolTable
70
2
0
APPID
5
12
100
AcDbSymbolTableRecord
100
AcDbRegAppTableRecord
2
ACAD
70
0
0
ENDTAB
0
TABLE
2
DIMSTYLE
5
A
100
AcDbSymbolTable
70
1
0
ENDTAB
0
TABLE
2
BLOCK_RECORD
5
1
100
AcDbSymbolTable
70
1
0
BLOCK_RECORD
5
1F
100
AcDbSymbolTableRecord
100
AcDbBlockTableRecord
2
*MODEL_SPACE
0
BLOCK_RECORD
5
1B
100
AcDbSymbolTableRecord
100
AcDbBlockTableRecord
2
*PAPER_SPACE
0
ENDTAB
0
ENDSEC
0
SECTION
2
BLOCKS
0
BLOCK
5
20
100
AcDbEntity
100
AcDbBlockBegin
2
*MODEL_SPACE
0
ENDBLK
5
21
100
AcDbEntity
100
AcDbBlockEnd
0
BLOCK
5
1C
100
AcDbEntity
100
AcDbBlockBegin
2
*PAPER_SPACE
0
ENDBLK
5
1D
100
AcDbEntity
100
AcDbBlockEnd
0
ENDSEC
0
SECTION
2
ENTITIES
0
LWPOLYLINE
5
100
100
AcDbEntity
8
0
100
AcDbPolyline
90
4
70
1
43
0.0
10
6.3500024414058487
20
6.3500180664064487
10
375.20000244140601
20
6.350018066406296
10
375.20000244140596
20
383.35004996156351
10
6.3500024414059197
20
383.35004996156363
0
CIRCLE
5
101
100
AcDbEntity
8
0
100
AcDbCircle
10
118.85000244140571
20
25.850018066406335
30
0
40
2.0000000000000289
210
0
220
-0
230
1
0
CIRCLE
5
102
100
AcDbEntity
8
0
100
AcDbCircle
10
136.85000244140576
20
25.850018066406335
30
0
40
2.0000000000000289
210
0
220
-0
230
1
0
CIRCLE
5
103
100
AcDbEntity
8
0
100
AcDbCircle
10
262.7000024414059
20
25.850018066406335
30
0
40
2.0000000000000289
210
0
220
-0
230
1
0
CIRCLE
5
104
100
AcDbEntity
8
0
100
AcDbCircle
10
244.70000244140593
20
25.850018066406335
30
0
40
2.0000000000000289
210
0
220
-0
230
1
0
CIRCLE
5
105
100
AcDbEntity
8
0
100
AcDbCircle
10
187.80750244140557
20
18.612549961562479
30
0
40
2.100000000000009
210
0
220
-0
230
1
0
CIRCLE
5
106
100
AcDbEntity
8
0
100
AcDbCircle
10
17.112502441405866
20
202.35004996156357
30
0
40
2.100000000000009
210
0
220
-0
230
1
0
CIRCLE
5
107
100
AcDbEntity
8
0
100
AcDbCircle
10
202.80750244140563
20
371.08754996156307
30
0
40
2.100000000000009
210
0
220
-0
230
1
0
CIRCLE
5
108
100
AcDbEntity
8
0
100
AcDbCircle
10
187.80750244140563
20
371.08754996156307
30
0
40
2.100000000000009
210
0
220
-0
230
1
0
CIRCLE
5
109
100
AcDbEntity
8
0
100
AcDbCircle
10
17.112502441405866
20
187.35004996156357
30
0
40
2.100000000000009
210
0
220
-0
230
1
0
CIRCLE
5
110
100
AcDbEntity
8
0
100
AcDbCircle
10
202.80750244140557
20
18.612549961562479
30
0
40
2.100000000000009
210
0
220
-0
230
1
0
CIRCLE
5
111
100
AcDbEntity
8
0
100
AcDbCircle
10
41.525002441405547
20
18.612550050969432
30
0
40
2.100000000000009
210
0
220
-0
230
1
0
CIRCLE
5
112
100
AcDbEntity
8
0
100
AcDbCircle
10
17.112502351998842
20
309.85004996156368
30
0
40
2.100000000000009
210
0
220
-0
230
1
0
CIRCLE
5
113
100
AcDbEntity
8
0
100
AcDbCircle
10
344.70000244140573
20
371.08754987215605
30
0
40
2.100000000000009
210
0
220
-0
230
1
0
CIRCLE
5
114
100
AcDbEntity
8
0
100
AcDbCircle
10
41.52500244140569
20
371.08754987215605
30
0
40
2.100000000000009
210
0
220
-0
230
1
0
CIRCLE
5
115
100
AcDbEntity
8
0
100
AcDbCircle
10
17.112502351998842
20
69.850049961563556
30
0
40
2.100000000000009
210
0
220
-0
230
1
0
CIRCLE
5
116
100
AcDbEntity
8
0
100
AcDbCircle
10
344.70000244140579
20
18.612550050969361
30
0
40
2.100000000000009
210
0
220
-0
230
1
0
LWPOLYLINE
5
117
100
AcDbEntity
8
0
100
AcDbPolyline
90
8
70
1
43
0.0
10
310.20000244140596
20
34.850018066406321
10
76.025002441405888
20
34.850018066406392
42
-0.41421356237309548
10
41.025002441405853
20
69.850018066406406
10
41.025002441406038
20
319.85004996156357
42
-0.41421356237309481
10
76.025002441406016
20
354.85004996156357
10
310.20000244140601
20
354.85004996156357
42
-0.41421356237309442
10
345.20000244140601
20
319.85004996156351
10
345.20000244140596
20
69.850018066406363
42
-0.4142135623730952
0
CIRCLE
5
118
100
AcDbEntity
8
0
100
AcDbCircle
10
125.62618994140564
20
57.451303710937793
30
0
40
2.1000000000000085
210
-0
220
0
230
1
0
CIRCLE
5
119
100
AcDbEntity
8
0
100
AcDbCircle
10
125.62618994140564
20
308.30130371093799
30
0
40
2.1000000000000085
210
-0
220
0
230
1
0
CIRCLE
5
120
100
AcDbEntity
8
0
100
AcDbCircle
10
63.626189941405613
20
57.451303710937793
30
0
40
2.1000000000000085
210
-0
220
0
230
1
0
CIRCLE
5
121
100
AcDbEntity
8
0
100
AcDbCircle
10
63.626189941405613
20
276.30130371093799
30
0
40
2.1000000000000085
210
-0
220
0
230
1
0
LWPOLYLINE
5
122
100
AcDbEntity
8
0
100
AcDbPolyline
90
12
70
1
43
0.0
10
89.626189941405627
20
310.30130371093804
10
89.626189941405585
20
292.30130371093793
42
-0.41421356237309426
10
79.626189941405627
20
282.30130371093793
10
61.626189941405585
20
282.30130371093793
42
0.41421356237309631
10
57.626189941405585
20
278.30130371093799
10
57.626189941405627
20
55.451303710937694
42
0.41421356237306445
10
61.626189941405585
20
51.451303710937701
10
127.62618994140567
20
51.451303710937857
42
0.41421356237309764
10
131.62618994140564
20
55.451303710937907
10
131.62618994140561
20
310.30130371093799
42
0.41421356237310542
10
127.6261899414056
20
314.30130371093804
10
93.626189941405613
20
314.3013037109381
42
0.41421356237309631
0
CIRCLE
5
123
100
AcDbEntity
8
0
100
AcDbCircle
10
205.97622656249936
20
47.872568359375194
30
0
40
2.1000000000000085
210
-0
220
0
230
1
0
CIRCLE
5
124
100
AcDbEntity
8
0
100
AcDbCircle
10
143.97622656249933
20
47.872568359375123
30
0
40
2.1000000000000085
210
-0
220
0
230
1
0
CIRCLE
5
125
100
AcDbEntity
8
0
100
AcDbCircle
10
205.97622656249936
20
266.72256835937532
30
0
40
2.1000000000000085
210
-0
220
0
230
1
0
CIRCLE
5
126
100
AcDbEntity
8
0
100
AcDbCircle
10
143.97622656249933
20
298.72256835937537
30
0
40
2.1000000000000085
210
-0
220
0
230
1
0
LWPOLYLINE
5
127
100
AcDbEntity
8
0
100
AcDbPolyline
90
12
70
1
43
0.0
10
211.97622656249936
20
268.72256835937537
42
0.41421356237309503
10
207.97622656249939
20
272.72256835937532
10
189.97622656249933
20
272.72256835937526
42
-0.41421356237309293
10
179.97622656249933
20
282.72256835937526
10
179.97622656249933
20
300.72256835937537
42
0.41421356237309503
10
175.97622656249936
20
304.72256835937537
10
141.97622656249936
20
304.72256835937543
42
0.41421356237310025
10
137.97622656249931
20
300.72256835937537
10
137.97622656249933
20
45.872568359375308
42
0.4142135623731022
10
141.97622656249931
20
41.872568359375187
10
207.97622656249942
20
41.872568359375187
42
0.41421356237305534
10
211.97622656249936
20
45.872568359375023
0
LWPOLYLINE
5
128
100
AcDbEntity
8
0
100
AcDbPolyline
90
4
70
1
43
0.0
10
6.3500173127744475
20
389.69996313476474
10
186.65001731277133
20
389.69999502992158
10
186.65001757812234
20
766.69999502992164
10
6.3500175781222978
20
766.69999502992164
0
CIRCLE
5
129
100
AcDbEntity
8
0
100
AcDbCircle
10
177.65001757812186
20
569.19999502992187
30
0
40
2.0000000000000284
210
-0
220
0
230
1
0
CIRCLE
5
130
100
AcDbEntity
8
0
100
AcDbCircle
10
177.65001757812252
20
722.19999502992187
30
0
40
1.9999999999999929
210
-0
220
0
230
1
0
CIRCLE
5
131
100
AcDbEntity
8
0
100
AcDbCircle
10
177.65001757812144
20
452.19999502992181
30
0
40
2.0000000000000284
210
-0
220
0
230
1
0
CIRCLE
5
132
100
AcDbEntity
8
0
100
AcDbCircle
10
177.65001757812144
20
587.19999502992187
30
0
40
2.0000000000000284
210
-0
220
0
230
1
0
CIRCLE
5
133
100
AcDbEntity
8
0
100
AcDbCircle
10
177.65001757812291
20
704.19999502992198
30
0
40
1.9999999999999929
210
-0
220
0
230
1
0
CIRCLE
5
134
100
AcDbEntity
8
0
100
AcDbCircle
10
177.65001757812186
20
434.19999502992187
30
0
40
2.0000000000000284
210
-0
220
0
230
1
0
CIRCLE
5
135
100
AcDbEntity
8
0
100
AcDbCircle
10
13.937517756936266
20
445.69999502992181
30
0
40
2.1000000000000085
210
-0
220
0
230
1
0
CIRCLE
5
136
100
AcDbEntity
8
0
100
AcDbCircle
10
179.06251757812464
20
410.87496313476447
30
0
40
2.1000000000000085
210
-0
220
0
230
1
0
CIRCLE
5
137
100
AcDbEntity
8
0
100
AcDbCircle
10
46.400017578121471
20
754.43749494051428
30
0
40
2.1000000000000085
210
-0
220
0
230
1
0
CIRCLE
5
138
100
AcDbEntity
8
0
100
AcDbCircle
10
179.06251757812208
20
736.52499502992168
30
0
40
2.1000000000000085
210
-0
220
0
230
1
0
CIRCLE
5
139
100
AcDbEntity
8
0
100
AcDbCircle
10
161.15001757812209
20
754.4928133117362
30
0
40
2.1000000000000085
210
-0
220
0
230
1
0
CIRCLE
5
140
100
AcDbEntity
8
0
100
AcDbCircle
10
13.937517667529207
20
578.19999502992175
30
0
40
2.1000000000000085
210
-0
220
0
230
1
0
CIRCLE
5
141
100
AcDbEntity
8
0
100
AcDbCircle
10
46.400017578121791
20
401.96249511932768
30
0
40
2.1000000000000085
210
-0
220
0
230
1
0
CIRCLE
5
142
100
AcDbEntity
8
0
100
AcDbCircle
10
13.937517756936266
20
460.69999502992181
30
0
40
2.1000000000000085
210
-0
220
0
230
1
0
CIRCLE
5
143
100
AcDbEntity
8
0
100
AcDbCircle
10
170.1500175781249
20
401.96246313476422
30
0
40
2.1000000000000085
210
-0
220
0
230
1
0
CIRCLE
5
144
100
AcDbEntity
8
0
100
AcDbCircle
10
13.937517756936408
20
700.69999502992175
30
0
40
2.1000000000000085
210
-0
220
0
230
1
0
CIRCLE
5
145
100
AcDbEntity
8
0
100
AcDbCircle
10
179.06251757812208
20
745.5249950299218
30
0
40
2.1000000000000085
210
-0
220
0
230
1
0
CIRCLE
5
146
100
AcDbEntity
8
0
100
AcDbCircle
10
170.15001757812206
20
754.43749502992182
30
0
40
2.1000000000000085
210
-0
220
0
230
1
0
CIRCLE
5
147
100
AcDbEntity
8
0
100
AcDbCircle
10
13.937517756936408
20
685.69999502992175
30
0
40
2.1000000000000085
210
-0
220
0
230
1
0
CIRCLE
5
148
100
AcDbEntity
8
0
100
AcDbCircle
10
161.15001757812493
20
401.90714485294939
30
0
40
2.1000000000000085
210
-0
220
0
230
1
0
CIRCLE
5
149
100
AcDbEntity
8
0
100
AcDbCircle
10
179.06251757812436
20
419.87496313476447
30
0
40
2.1000000000000085
210
-0
220
0
230
1
0
CIRCLE
5
150
100
AcDbEntity
8
0
100
AcDbCircle
10
200.58751156401271
20
575.48248029421779
30
0
40
2.100000000000009
210
0
220
-0
230
1
0
CIRCLE
5
151
100
AcDbEntity
8
0
100
AcDbCircle
10
240.5500114746057
20
397.28748029421797
30
0
40
2.100000000000009
210
0
220
-0
230
1
0
CIRCLE
5
152
100
AcDbEntity
8
0
100
AcDbCircle
10
365.59140001128719
20
415.19998029421771
30
0
40
2.100000000000009
210
0
220
-0
230
1
0
CIRCLE
5
153
100
AcDbEntity
8
0
100
AcDbCircle
10
225.5500114746057
20
397.28748029421797
30
0
40
2.100000000000009
210
0
220
-0
230
1
0
CIRCLE
5
154
100
AcDbEntity
8
0
100
AcDbCircle
10
200.58751147460598
20
717.37498029421795
30
0
40
2.100000000000009
210
0
220
-0
230
1
0
CIRCLE
5
155
100
AcDbEntity
8
0
100
AcDbCircle
10
200.58751147460561
20
429.19998029421788
30
0
40
2.100000000000009
210
0
220
-0
230
1
0
CIRCLE
5
156
100
AcDbEntity
8
0
100
AcDbCircle
10
352.30001147460621
20
397.2874802942178
30
0
40
2.100000000000009
210
0
220
-0
230
1
0
CIRCLE
5
157
100
AcDbEntity
8
0
100
AcDbCircle
10
365.71251138519921
20
406.19998029421777
30
0
40
2.100000000000009
210
0
220
-0
230
1
0
CIRCLE
5
158
100
AcDbEntity
8
0
100
AcDbCircle
10
200.58751147460561
20
414.19998029421788
30
0
40
2.100000000000009
210
0
220
-0
230
1
0
CIRCLE
5
159
100
AcDbEntity
8
0
100
AcDbCircle
10
200.58751147460598
20
732.37498029421795
30
0
40
2.100000000000009
210
0
220
-0
230
1
0
LWPOLYLINE
5
160
100
AcDbEntity
8
0
100
AcDbPolyline
90
11
70
1
43
0.0
10
366.95001147460658
20
675.37498029421829
10
249.35001147460662
20
675.3749802942184
42
-0.41421356237309837
10
243.00001147460654
20
681.72498029421831
10
243.00001147460654
20
725.37498029421829
10
223.00001147460659
20
725.37498029421818
10
223.00001147460659
20
749.02498029421827
42
0.41421356237308193
10
216.65001147460657
20
755.37498029421829
10
193.00001147460659
20
755.37498029421818
10
193.00001147460648
20
389.69998029421799
10
373.30001147460655
20
389.69998029421811
10
373.30001147460666
20
669.02498029421827
42
0.41421356237309837
0
CIRCLE
5
161
100
AcDbEntity
8
0
100
AcDbCircle
10
414.17491699218743
20
770.22593359375026
30
0
40
2.0000000000000289
210
0
220
-0
230
1
0
CIRCLE
5
162
100
AcDbEntity
8
0
100
AcDbCircle
10
396.17491699218749
20
770.22593359375026
30
0
40
2.0000000000000289
210
0
220
-0
230
1
0
CIRCLE
5
163
100
AcDbEntity
8
0
100
AcDbCircle
10
270.32491699218724
20
770.22593359375026
30
0
40
2.0000000000000289
210
0
220
-0
230
1
0
CIRCLE
5
164
100
AcDbEntity
8
0
100
AcDbCircle
10
288.3249169921873
20
770.22593359375026
30
0
40
2.0000000000000289
210
0
220
-0
230
1
0
CIRCLE
5
165
100
AcDbEntity
8
0
100
AcDbCircle
10
420.38116699218756
20
1067.4989654889075
30
0
40
6.3500000000000165
210
0
220
-0
230
1
0
LWPOLYLINE
5
166
100
AcDbEntity
8
0
100
AcDbPolyline
90
8
70
1
43
0.0
10
496.17491699218755
20
796.22593359375037
10
496.1749169921876
20
1046.2259654889076
42
0.4142135623730932
10
461.6749169921876
20
1080.7259654889074
10
227.49991699218751
20
1080.7259654889074
42
0.41421356237309476
10
192.99991699218751
20
1046.2259654889076
10
192.99991699218742
20
796.22593359375037
42
0.41421356237309503
10
227.49991699218739
20
761.72593359375026
10
461.67491699218743
20
761.72593359375026
42
0.4142135623730957
0
CIRCLE
5
167
100
AcDbEntity
8
0
100
AcDbCircle
10
165.64998706054664
20
780.63759960937296
30
0
40
2.100000000000009
210
-0
220
0
230
1
0
CIRCLE
5
168
100
AcDbEntity
8
0
100
AcDbCircle
10
13.937487060543461
20
797.55009960937275
30
0
40
2.100000000000009
210
-0
220
0
230
1
0
CIRCLE
5
169
100
AcDbEntity
8
0
100
AcDbCircle
10
13.937487060543532
20
1115.7250996093728
30
0
40
2.100000000000009
210
-0
220
0
230
1
0
CIRCLE
5
170
100
AcDbEntity
8
0
100
AcDbCircle
10
38.899987060543388
20
780.63759960937273
30
0
40
2.100000000000009
210
-0
220
0
230
1
0
CIRCLE
5
171
100
AcDbEntity
8
0
100
AcDbCircle
10
179.06248697113963
20
789.55009960937275
30
0
40
2.100000000000009
210
-0
220
0
230
1
0
CIRCLE
5
172
100
AcDbEntity
8
0
100
AcDbCircle
10
13.937487060543461
20
812.55009960937275
30
0
40
2.100000000000009
210
-0
220
0
230
1
0
CIRCLE
5
173
100
AcDbEntity
8
0
100
AcDbCircle
10
13.937487149950378
20
958.83259960937266
30
0
40
2.100000000000009
210
-0
220
0
230
1
0
CIRCLE
5
174
100
AcDbEntity
8
0
100
AcDbCircle
10
13.937487060543532
20
1100.7250996093728
30
0
40
2.100000000000009
210
-0
220
0
230
1
0
CIRCLE
5
175
100
AcDbEntity
8
0
100
AcDbCircle
10
53.899987060543388
20
780.63759960937273
30
0
40
2.100000000000009
210
-0
220
0
230
1
0
CIRCLE
5
176
100
AcDbEntity
8
0
100
AcDbCircle
10
178.94137559722762
20
798.55009960937286
30
0
40
2.100000000000009
210
-0
220
0
230
1
0
LWPOLYLINE
5
177
100
AcDbEntity
8
0
100
AcDbPolyline
90
11
70
1
43
0.0
10
180.29998706054681
20
1058.7250996093733
10
62.699987060546803
20
1058.725099609373
42
-0.41421356237310408
10
56.349987060546773
20
1065.0750996093732
10
56.349987060546781
20
1108.725099609373
10
36.349987060546837
20
1108.725099609373
10
36.349987060546852
20
1132.3750996093731
42
0.41421356237308377
10
29.999987060546896
20
1138.725099609373
10
6.34998706054684
20
1138.725099609373
10
6.3499870605467281
20
773.05009960937298
10
186.64998706054683
20
773.05009960937309
10
186.64998706054686
20
1052.3750996093731
42
0.41421356237309176
0
ENDSEC
0
SECTION
2
OBJECTS
0
DICTIONARY
5
C
100
AcDbDictionary
3
ACAD_GROUP
350
D
3
ACAD_MLINESTYLE
350
17
0
DICTIONARY
5
D
100
AcDbDictionary
0
DICTIONARY
5
1A
330
C
100
AcDbDictionary
0
DICTIONARY
5
17
100
AcDbDictionary
0
ENDSEC
0
EOF
