0
SECTION
2
HEADER
9
$INSUNITS
70
4
9
$ACADVER
1
AC1014
9
$HANDSEED
5
FFFF
0
ENDSEC
0
SECTION
2
TABLES
0
TABLE
2
VPORT
5
8
100
AcDbSymbolTable
0
ENDTAB
0
TABLE
2
LTYPE
5
5
100
AcDbSymbolTable
0
LTYPE
5
14
100
AcDbSymbolTableRecord
100
AcDbLinetypeTableRecord
2
BYBLOCK
70
0
0
LTYPE
5
15
100
AcDbSymbolTableRecord
100
AcDbLinetypeTableRecord
2
BYLAYER
70
0
0
LTYPE
5
16
100
AcDbSymbolTableRecord
100
AcDbLinetypeTableRecord
2
DASHED
70
0
3
Dashed __ __ __ __ __ __ __ __ __ __ __ __ __ _
72
65
73
2
40
0.75
49
0.5
74
0
49
-0.25
74
0
0
ENDTAB
0
TABLE
2
LAYER
5
2
100
AcDbSymbolTable
70
2
0
LAYER
5
50
100
AcDbSymbolTableRecord
100
AcDbLayerTableRecord
2
0
70
0
62
7
6
CONTINUOUS
0
ENDTAB
0
TABLE
2
STYLE
5
3
100
AcDbSymbolTable
70
1
0
STYLE
5
11
100
AcDbSymbolTableRecord
100
AcDbTextStyleTableRecord
2
STANDARD
70
0
0
ENDTAB
0
TABLE
2
VIEW
5
6
100
AcDbSymbolTable
70
0
0
ENDTAB
0
TABLE
2
UCS
5
7
100
AcDbSymbolTable
70
0
0
ENDTAB
0
TABLE
2
APPID
5
9
100
AcDbSymbolTable
70
2
0
APPID
5
12
100
AcDbSymbolTableRecord
100
AcDbRegAppTableRecord
2
ACAD
70
0
0
ENDTAB
0
TABLE
2
DIMSTYLE
5
A
100
AcDbSymbolTable
70
1
0
ENDTAB
0
TABLE
2
BLOCK_RECORD
5
1
100
AcDbSymbolTable
70
1
0
BLOCK_RECORD
5
1F
100
AcDbSymbolTableRecord
100
AcDbBlockTableRecord
2
*MODEL_SPACE
0
BLOCK_RECORD
5
1B
100
AcDbSymbolTableRecord
100
AcDbBlockTableRecord
2
*PAPER_SPACE
0
ENDTAB
0
ENDSEC
0
SECTION
2
BLOCKS
0
BLOCK
5
20
100
AcDbEntity
100
AcDbBlockBegin
2
*MODEL_SPACE
0
ENDBLK
5
21
100
AcDbEntity
100
AcDbBlockEnd
0
BLOCK
5
1C
100
AcDbEntity
100
AcDbBlockBegin
2
*PAPER_SPACE
0
ENDBLK
5
1D
100
AcDbEntity
100
AcDbBlockEnd
0
ENDSEC
0
SECTION
2
ENTITIES
0
CIRCLE
5
100
100
AcDbEntity
8
0
100
AcDbCircle
10
-97.743975585936127
20
-402.01797558593734
30
0
40
3.0000000000000009
210
0
220
-0
230
1
0
CIRCLE
5
101
100
AcDbEntity
8
0
100
AcDbCircle
10
-97.743975585936127
20
-449.51797558593734
30
0
40
3.0000000000000009
210
0
220
-0
230
1
0
CIRCLE
5
102
100
AcDbEntity
8
0
100
AcDbCircle
10
-434.24397558593631
20
-498.26797558593734
30
0
40
3.0000000000000009
210
0
220
-0
230
1
0
CIRCLE
5
103
100
AcDbEntity
8
0
100
AcDbCircle
10
-396.74397558593625
20
-449.51797558593739
30
0
40
3.0000000000000009
210
0
220
-0
230
1
0
CIRCLE
5
104
100
AcDbEntity
8
0
100
AcDbCircle
10
-434.24397558593625
20
-353.26797558593745
30
0
40
3.0000000000000009
210
0
220
-0
230
1
0
CIRCLE
5
105
100
AcDbEntity
8
0
100
AcDbCircle
10
-396.74397558593625
20
-402.01797558593739
30
0
40
3.0000000000000009
210
0
220
-0
230
1
0
CIRCLE
5
106
100
AcDbEntity
8
0
100
AcDbCircle
10
-434.24397558593625
20
-425.76797558593739
30
0
40
3.0000000000000009
210
0
220
-0
230
1
0
CIRCLE
5
107
100
AcDbEntity
8
0
100
AcDbCircle
10
-60.243975585936127
20
-498.26797558593728
30
0
40
3.0000000000000009
210
0
220
-0
230
1
0
CIRCLE
5
108
100
AcDbEntity
8
0
100
AcDbCircle
10
-60.243975585936127
20
-425.76797558593734
30
0
40
3.0000000000000009
210
0
220
-0
230
1
0
CIRCLE
5
109
100
AcDbEntity
8
0
100
AcDbCircle
10
-60.243975585936127
20
-353.26797558593734
30
0
40
3.0000000000000009
210
0
220
-0
230
1
0
CIRCLE
5
110
100
AcDbEntity
8
0
100
AcDbCircle
10
-237.64997558595775
20
-232.64997558593797
30
0
40
2.517500000000001
210
0
220
-0
230
1
0
CIRCLE
5
111
100
AcDbEntity
8
0
100
AcDbCircle
10
-237.64997558594837
20
-157.64997558593785
30
0
40
2.517500000000001
210
0
220
-0
230
1
0
CIRCLE
5
112
100
AcDbEntity
8
0
100
AcDbCircle
10
-237.64997558596718
20
-307.64997558593819
30
0
40
2.517500000000001
210
0
220
-0
230
1
0
CIRCLE
5
113
100
AcDbEntity
8
0
100
AcDbCircle
10
-237.64997558593899
20
-82.649975585937625
30
0
40
2.517500000000001
210
0
220
-0
230
1
0
LWPOLYLINE
5
114
100
AcDbEntity
8
0
100
AcDbPolyline
90
4
70
1
43
0.0
10
-281.34997558593739
20
-561.34997558593761
10
-381.34997558593739
20
-561.3499755859375
42
-0.99999999999999989
10
-381.34997558593739
20
-531.3499755859375
10
-281.34997558593739
20
-531.34997558593761
42
-0.99999999999999989
0
LWPOLYLINE
5
115
100
AcDbEntity
8
0
100
AcDbPolyline
90
4
70
1
43
0.0
10
-281.34997558593733
20
-61.349975585937528
10
-381.34997558593733
20
-61.349975585937386
42
-0.99999999999999989
10
-381.34997558593733
20
-31.349975585937383
10
-281.34997558593733
20
-31.349975585937528
42
-0.99999999999999989
0
LWPOLYLINE
5
116
100
AcDbEntity
8
0
100
AcDbPolyline
90
4
70
1
43
0.0
10
-201.34997558593733
20
-31.349975585937528
10
-101.34997558593724
20
-31.349975585937528
42
-0.99999999999999989
10
-101.34997558593724
20
-61.349975585937528
10
-201.34997558593733
20
-61.349975585937528
42
-0.99999999999999989
0
LWPOLYLINE
5
117
100
AcDbEntity
8
0
100
AcDbPolyline
90
4
70
1
43
0.0
10
-201.34997558593739
20
-531.34997558593761
10
-101.34997558593732
20
-531.34997558593773
42
-0.99999999999999989
10
-101.34997558593732
20
-561.34997558593773
10
-201.34997558593739
20
-561.34997558593761
42
-0.99999999999999989
0
LWPOLYLINE
5
118
100
AcDbEntity
8
0
100
AcDbPolyline
90
20
70
1
43
0.0
10
-11.349975585937241
20
-71.349975585937543
42
0.41421356237309548
10
-36.349975585937237
20
-46.349975585937521
10
-41.349975585937237
20
-46.349975585937528
42
-0.30277563773199417
10
-64.426898662860296
20
-30.965360201322184
42
0.3027756377319949
10
-101.34997558593724
20
-6.3499755859375187
10
-381.34997558593733
20
-6.3499755859374662
42
0.30277563773199467
10
-418.27305250901424
20
-30.965360201322007
42
-0.30277563773199456
10
-441.34997558593733
20
-46.349975585937386
10
-446.34997558593733
20
-46.349975585937386
42
0.41421356237309587
10
-471.34997558593739
20
-71.349975585937386
10
-471.34997558593744
20
-521.3499755859375
42
0.41421356237309587
10
-446.34997558593739
20
-546.3499755859375
10
-441.3499755859375
20
-546.3499755859375
42
-0.30277563773199473
10
-418.27305250901441
20
-561.73459097055297
42
0.30277563773199423
10
-381.34997558593744
20
-586.34997558593761
10
-101.34997558593732
20
-586.34997558593761
42
0.30277563773199456
10
-64.426898662860395
20
-561.73459097055309
42
-0.30277563773199501
10
-41.349975585937301
20
-546.34997558593773
10
-36.349975585937315
20
-546.34997558593773
42
0.41421356237309498
10
-11.349975585937319
20
-521.34997558593761
0
LWPOLYLINE
5
119
100
AcDbEntity
8
0
100
AcDbPolyline
90
8
70
1
43
0.0
10
-824.14987228317852
20
-205.91969780445481
42
0.41421356237309342
10
-817.7998722831785
20
-199.56969780445479
10
-817.79987228317839
20
-81.969697804454825
42
-0.41421356237309503
10
-811.44987228317837
20
-75.619697804454773
10
-541.6498722831783
20
-75.61969780445483
10
-541.6498722831783
20
-15.919697804454795
10
-867.7998722831785
20
-15.919697804454724
10
-867.7998722831785
20
-205.91969780445481
0
CIRCLE
5
120
100
AcDbEntity
8
0
100
AcDbCircle
10
-525.29995773239636
20
-108.04997124195468
30
0
40
1.6659999999999999
210
-5.4738221262688179e-48
220
-2.4651903288156624e-32
230
1
0
LWPOLYLINE
5
121
100
AcDbEntity
8
0
100
AcDbPolyline
90
8
70
1
43
0.0
10
-767.79995773239693
20
-274.59997124195473
42
0.41421356237309342
10
-761.4499577323968
20
-268.24997124195471
10
-761.44995773239668
20
-150.64997124195474
42
-0.41421356237308771
10
-755.09995773239677
20
-144.29997124195469
10
-485.29995773239676
20
-144.29997124195475
10
-485.29995773239671
20
-84.599971241954705
10
-811.4499577323968
20
-84.599971241954648
10
-811.4499577323968
20
-274.59997124195473
0
CIRCLE
5
122
100
AcDbEntity
8
0
100
AcDbCircle
10
-880.64984650104816
20
-115.28377273088417
30
0
40
3.2500000000000284
210
4.3790577010150563e-47
220
-1.9721522630525295e-31
230
1
0
CIRCLE
5
123
100
AcDbEntity
8
0
100
AcDbCircle
10
-955.6498465010485
20
-115.28377273089362
30
0
40
3.2500000000000284
210
4.3790577010150563e-47
220
-1.9721522630525295e-31
230
1
0
CIRCLE
5
124
100
AcDbEntity
8
0
100
AcDbCircle
10
-955.64984650103906
20
-190.28377273089382
30
-1.5777218104420236e-29
40
3.2500000000000284
210
4.3790577010150563e-47
220
-1.9721522630525295e-31
230
1
0
CIRCLE
5
125
100
AcDbEntity
8
0
100
AcDbCircle
10
-880.64984650103884
20
-190.28377273088438
30
0
40
3.2500000000000284
210
4.3790577010150563e-47
220
-1.9721522630525295e-31
230
1
0
CIRCLE
5
126
100
AcDbEntity
8
0
100
AcDbCircle
10
-880.64984650104509
20
-140.28377273088432
30
0
40
2.5175000000000001
210
5.4738221262688155e-48
220
-2.4651903288156619e-32
230
1
0
CIRCLE
5
127
100
AcDbEntity
8
0
100
AcDbCircle
10
-955.64984650104225
20
-165.28377273089382
30
0
40
2.5175000000000001
210
5.4738221262688155e-48
220
-2.4651903288156619e-32
230
1
0
CIRCLE
5
128
100
AcDbEntity
8
0
100
AcDbCircle
10
-955.64984650104532
20
-140.28377273089376
30
0
40
2.5175000000000001
210
5.4738221262688155e-48
220
-2.4651903288156619e-32
230
1
0
CIRCLE
5
129
100
AcDbEntity
8
0
100
AcDbCircle
10
-880.64984650104191
20
-165.28377273088438
30
0
40
2.5175000000000001
210
5.4738221262688155e-48
220
-2.4651903288156619e-32
230
1
0
LWPOLYLINE
5
130
100
AcDbEntity
8
0
100
AcDbPolyline
90
4
70
1
43
0.0
10
-874.14984650104998
20
-101.2837727308834
10
-962.14984650103804
20
-101.28377273088347
10
-962.14984650103804
20
-199.28377273089467
10
-874.14984650104998
20
-199.28377273089461
0
LWPOLYLINE
5
131
100
AcDbEntity
8
0
100
AcDbPolyline
90
12
70
1
43
0.0
10
-916.22387695312511
20
-215.63385009765622
10
-916.22387695312523
20
-370.63385009765625
42
0.41421356237310336
10
-906.22387695312523
20
-380.63385009765625
10
-880.97504344739787
20
-380.63385009765625
42
0.22548051230995431
10
-873.22269359222491
20
-376.95057960927863
10
-823.47152709795228
20
-315.89232982085326
42
0.17261162704440416
10
-821.22387695312511
20
-309.57560030923088
10
-821.22387695312511
20
-276.69209988608173
42
0.17261162704440319
10
-823.47152709795228
20
-270.37537037445941
10
-873.22269359222469
20
-209.31712058603387
42
0.22548051230994556
10
-880.97504344739764
20
-205.63385009765625
10
-906.22387695312511
20
-205.63385009765622
42
0.41421356237310125
0
CIRCLE
5
132
100
AcDbEntity
8
0
100
AcDbCircle
10
-901.22387695312511
20
-365.63385009765625
30
0
40
3.2500000000000022
210
-0
220
0
230
1
0
CIRCLE
5
133
100
AcDbEntity
8
0
100
AcDbCircle
10
-881.22387695312511
20
-340.63385009765625
30
-4.7285951542251434e-16
40
3.2500000000000022
210
-0
220
0
230
1
0
CIRCLE
5
134
100
AcDbEntity
8
0
100
AcDbCircle
10
-863.72387695312511
20
-316.88385009765625
30
0
40
3.2500000000000022
210
-0
220
0
230
1
0
CIRCLE
5
135
100
AcDbEntity
8
0
100
AcDbCircle
10
-901.22387695312511
20
-293.13385009765625
30
0
40
3.2500000000000009
210
-0
220
0
230
1
0
CIRCLE
5
136
100
AcDbEntity
8
0
100
AcDbCircle
10
-863.72387695312511
20
-269.38385009765625
30
0
40
3.2500000000000022
210
-0
220
0
230
1
0
CIRCLE
5
137
100
AcDbEntity
8
0
100
AcDbCircle
10
-846.22387695312511
20
-293.13385009765625
30
3.7140633637848959e-16
40
3.2500000000000009
210
-0
220
0
230
1
0
CIRCLE
5
138
100
AcDbEntity
8
0
100
AcDbCircle
10
-881.22387695312511
20
-245.63385009765625
30
1.0544916355435275e-16
40
3.2500000000000022
210
-0
220
0
230
1
0
CIRCLE
5
139
100
AcDbEntity
8
0
100
AcDbCircle
10
-901.22387695312511
20
-220.63385009765625
30
0
40
3.2500000000000022
210
-0
220
0
230
1
0
LINE
5
140
100
AcDbEntity
8
0
100
AcDbLine
10
-774.92486251755281
20
-353.85005962759919
30
0
11
-761.4498625175529
21
-353.85005962759919
31
-2.3980308282474159e-31
0
LINE
5
141
100
AcDbEntity
8
0
100
AcDbLine
10
-761.4498625175529
20
-353.85005962759919
30
-2.3980308282474159e-31
11
-761.4498625175529
21
-283.85005962759919
31
0
0
LINE
5
142
100
AcDbEntity
8
0
100
AcDbLine
10
-774.92486251755281
20
-353.85005962759919
30
3.5436329722868737e-17
11
-800.32486251755267
21
-353.85005962759919
31
3.5436329722869131e-17
0
LINE
5
143
100
AcDbEntity
8
0
100
AcDbLine
10
-804.44986251755279
20
-353.85005962759919
30
0
11
-800.32486251755267
21
-353.85005962759919
31
2.2179905762827938e-32
0
LINE
5
144
100
AcDbEntity
8
0
100
AcDbLine
10
-814.44986251755279
20
-353.85005962335299
30
0
11
-804.44986251755279
21
-353.85005962759919
31
0
0
LINE
5
145
100
AcDbEntity
8
0
100
AcDbLine
10
-814.44986251755279
20
-342.02505962759921
30
0
11
-814.44986251755279
21
-353.85005962335299
31
0
0
LINE
5
146
100
AcDbEntity
8
0
100
AcDbLine
10
-800.32486251755267
20
-342.02505962759921
30
0
11
-814.44986251755279
21
-342.02505962759921
31
0
0
LINE
5
147
100
AcDbEntity
8
0
100
AcDbLine
10
-800.32486251755267
20
-342.02505962759921
30
-2.4929729487423666e-17
11
-796.62486251755263
21
-342.02505962759921
31
-2.492972948742362e-17
0
ARC
5
148
100
AcDbEntity
8
0
100
AcDbCircle
10
-796.62486251755286
20
-338.85005962759919
30
-1.3619933206042368e-16
40
3.1750000000000256
210
-1.5685894043108903e-30
220
3.5045544117480054e-17
230
1
100
AcDbArc
50
-89.999999999995936
51
90.000000000002061
0
LINE
5
149
100
AcDbEntity
8
0
100
AcDbLine
10
-796.62486251755297
20
-335.67505962759918
30
-1.361993320604236e-16
11
-800.3248625175529
21
-335.67505962759901
31
3.0086821522818169e-17
0
LINE
5
150
100
AcDbEntity
8
0
100
AcDbLine
10
-814.44986251393118
20
-335.67505962759969
30
0
11
-800.32486251755267
21
-335.67505962759901
31
-1.9685086474029568e-31
0
LINE
5
151
100
AcDbEntity
8
0
100
AcDbLine
10
-814.44986251393118
20
-322.02505962759972
30
0
11
-814.44986251393118
21
-335.67505962759969
31
0
0
LINE
5
152
100
AcDbEntity
8
0
100
AcDbLine
10
-807.62486251755263
20
-322.02505962759926
30
0
11
-814.44986251393118
21
-322.02505962759972
31
0
0
ARC
5
153
100
AcDbEntity
8
0
100
AcDbCircle
10
-807.62486251755286
20
-318.85005962759925
30
0
40
3.1750000000000256
210
-6.841415638603362e-46
220
-6.1242433818269321e-59
230
1
100
AcDbArc
50
-89.999999999995936
51
90
0
LINE
5
154
100
AcDbEntity
8
0
100
AcDbLine
10
-814.44986251030969
20
-315.67505962759952
30
0
11
-807.62486251755286
21
-315.6750596275993
31
7.8269792939897261e-32
0
LINE
5
155
100
AcDbEntity
8
0
100
AcDbLine
10
-814.44986251030969
20
-302.02505962759949
30
0
11
-814.44986251030969
21
-315.67505962759952
31
0
0
LINE
5
156
100
AcDbEntity
8
0
100
AcDbLine
10
-796.62486251755263
20
-302.02505962759903
30
0
11
-814.44986251030969
21
-302.02505962759949
31
0
0
ARC
5
157
100
AcDbEntity
8
0
100
AcDbCircle
10
-796.62486251755286
20
-298.85005962759897
30
0
40
3.1750000000000256
210
3.9579613059470638e-46
220
1.7715279712505345e-59
230
1
100
AcDbArc
50
-89.999999999995936
51
90
0
LINE
5
158
100
AcDbEntity
8
0
100
AcDbLine
10
-814.44986250701845
20
-295.6750596275989
30
0
11
-796.62486251755286
21
-295.67505962759901
31
7.8269792939897261e-32
0
LINE
5
159
100
AcDbEntity
8
0
100
AcDbLine
10
-814.44986250701845
20
-283.85005962578839
30
0
11
-814.44986250701845
21
-295.6750596275989
31
0
0
LINE
5
160
100
AcDbEntity
8
0
100
AcDbLine
10
-804.44986251755279
20
-283.85005962759919
30
0
11
-814.44986250701845
21
-283.85005962578839
31
0
0
LINE
5
161
100
AcDbEntity
8
0
100
AcDbLine
10
-761.4498625175529
20
-283.85005962759919
30
0
11
-804.44986251755279
21
-283.85005962759919
31
0
0
CIRCLE
5
162
100
AcDbEntity
8
0
100
AcDbCircle
10
-806.44986250701572
20
-289.76255962759933
30
0
40
2.5174999999999415
210
-3.5032461608120427e-46
220
-5.1617953496167387e-60
230
1
0
CIRCLE
5
163
100
AcDbEntity
8
0
100
AcDbCircle
10
-769.44986251754972
20
-289.76255962759956
30
0
40
2.5174999999999415
210
0
220
-0
230
1
0
CIRCLE
5
164
100
AcDbEntity
8
0
100
AcDbCircle
10
-767.62486251755286
20
-318.85005962759919
30
0
40
3.25
210
5.4738221262688167e-48
220
-2.4651903288156619e-32
230
1
0
CIRCLE
5
165
100
AcDbEntity
8
0
100
AcDbCircle
10
-780.12486251755286
20
-318.85005962759919
30
-8.7491124948524422e-17
40
3.25
210
5.4738221262688167e-48
220
-2.4651903288156619e-32
230
1
0
CIRCLE
5
166
100
AcDbEntity
8
0
100
AcDbCircle
10
-795.12486251755286
20
-318.85005962759919
30
-8.7491124948524422e-17
40
3.25
210
5.4738221262688167e-48
220
-2.4651903288156619e-32
230
1
0
LWPOLYLINE
5
167
100
AcDbEntity
8
0
100
AcDbPolyline
90
5
70
1
43
0.0
10
-619.29796582031258
20
-223.12060546874989
10
-619.29796582031258
20
-188.12060546874986
10
-724.46496582031261
20
-188.12060546874989
10
-724.46496582031261
20
-244.47060546874991
10
-697.4649658203125
20
-244.47060546874991
0
CIRCLE
5
168
100
AcDbEntity
8
0
100
AcDbCircle
10
-489.04998779297489
20
-166.14994943696837
30
-1.5777218104420236e-29
40
3.2500000000000284
210
4.3790577010150533e-47
220
-1.9721522630525295e-31
230
1
0
CIRCLE
5
169
100
AcDbEntity
8
0
100
AcDbCircle
10
-489.04998779297489
20
-196.14994943696837
30
0
40
3.2500000000000284
210
4.3790577010150533e-47
220
-1.9721522630525295e-31
230
1
0
CIRCLE
5
170
100
AcDbEntity
8
0
100
AcDbCircle
10
-489.04998779297171
20
-268.1499494369823
30
0
40
3.2500000000000284
210
4.3790577010150533e-47
220
-1.9721522630525295e-31
230
1
0
CIRCLE
5
171
100
AcDbEntity
8
0
100
AcDbCircle
10
-512.69998779296861
20
-304.49994943698232
30
3.1554436208840472e-29
40
3.2500000000000284
210
4.3790577010150533e-47
220
-1.9721522630525295e-31
230
1
0
CIRCLE
5
172
100
AcDbEntity
8
0
100
AcDbCircle
10
-542.69998779296861
20
-304.49994943698232
30
3.1554436208840472e-29
40
3.2500000000000284
210
4.3790577010150533e-47
220
-1.9721522630525295e-31
230
1
0
CIRCLE
5
173
100
AcDbEntity
8
0
100
AcDbCircle
10
-695.09998779296996
20
-304.49994943698249
30
0
40
3.2500000000000284
210
4.3790577010150533e-47
220
-1.9721522630525295e-31
230
1
0
CIRCLE
5
174
100
AcDbEntity
8
0
100
AcDbCircle
10
-725.09998779296996
20
-304.49994943698249
30
0
40
3.2500000000000284
210
4.3790577010150533e-47
220
-1.9721522630525295e-31
230
1
0
CIRCLE
5
175
100
AcDbEntity
8
0
100
AcDbCircle
10
-748.74998779296993
20
-264.49994943698243
30
0
40
3.2500000000000284
210
4.3790577010150533e-47
220
-1.9721522630525295e-31
230
1
0
LWPOLYLINE
5
176
100
AcDbEntity
8
0
100
AcDbPolyline
90
13
70
1
43
0.0
10
-482.69998779297498
20
-315.84994943698547
42
0.41421356237310336
10
-477.69998779297498
20
-310.84994943698547
10
-477.69998779297498
20
-155.6499494369715
42
0.41421356237310125
10
-482.69998779297498
20
-150.64994943697155
10
-607.19564958625722
20
-150.64994943697155
42
0.41421356237310125
10
-612.19564958625722
20
-155.64994943697158
10
-612.19564958625722
20
-225.33123037723732
42
-0.28521403641531912
10
-614.97838288125251
20
-229.81271767041105
10
-671.20492328671276
20
-257.63143673015924
42
-0.11536979367282937
10
-673.42218999171746
20
-258.14994943698548
10
-755.09998779296984
20
-258.14994943698548
10
-755.09998779296984
20
-310.84994943698553
42
0.4142135623730992
10
-750.09998779296984
20
-315.84994943698564
0
LWPOLYLINE
5
177
100
AcDbEntity
8
0
100
AcDbPolyline
90
8
70
1
43
0.0
10
-505.39998779297491
20
-230.74994943697709
10
-587.19564958625722
20
-230.74994943697718
42
-0.41421356237309503
10
-592.19564958625722
20
-225.74994943697718
10
-592.19564958625722
20
-175.64994943697158
42
-0.41421356237309503
10
-587.19564958625722
20
-170.64994943697158
10
-505.39998779297491
20
-170.6499494369715
42
-0.41421356237309503
10
-500.39998779297491
20
-175.6499494369715
10
-500.39998779297491
20
-225.74994943697709
42
-0.41421356237309503
0
LWPOLYLINE
5
178
100
AcDbEntity
8
0
100
AcDbPolyline
90
7
70
1
43
0.0
10
-505.39998779297491
20
-290.84994943698547
10
-671.86380032870557
20
-290.84994943698553
42
-0.79312727612440337
10
-674.08106703371027
20
-281.36846214381183
10
-612.19564958625722
20
-250.74994943697718
10
-505.39998779297491
20
-250.74994943697709
42
-0.41421356237309503
10
-500.39998779297491
20
-255.74994943697709
10
-500.39998779297497
20
-285.84994943698553
42
-0.41421356237309503
0
LWPOLYLINE
5
179
100
AcDbEntity
8
0
100
AcDbPolyline
90
14
70
1
43
0.0
10
-516.21441630840559
20
-196.46441650390616
10
-508.21441650390619
20
-196.46441650390616
10
-508.21441650390625
20
-178.46441650390616
10
-562.21441650390625
20
-178.46441650390616
10
-562.21441650390625
20
-196.46441650390616
10
-554.21441650390625
20
-196.46441650390616
42
-0.41421356237309503
10
-548.21441650390625
20
-202.46441650390619
10
-548.21441650390625
20
-220.46483265130666
10
-537.21441650390625
20
-220.46483265130666
10
-537.21441650390625
20
-211.6928326513067
42
-7.3642080737004081
10
-533.21441650390636
20
-211.6928326513067
10
-533.21441650390625
20
-220.46483265130666
10
-522.21441616177685
20
-220.46483265130666
10
-522.2144163084057
20
-202.46441655278133
42
-0.41421356475896143
0
LWPOLYLINE
5
180
100
AcDbEntity
8
0
100
AcDbPolyline
90
5
70
1
43
0.0
10
-711.58368701171878
20
-346.1505126953125
10
-711.58368701171878
20
-381.1505126953125
10
-606.41668701171875
20
-381.1505126953125
10
-606.41668701171875
20
-324.80051269531253
10
-633.41668701171886
20
-324.80051269531253
0
CIRCLE
5
181
100
AcDbEntity
8
0
100
AcDbCircle
10
-622.9330101149385
20
-398.85058593750585
30
0
40
3.2500000000000284
210
4.219021929555649e-32
220
5.1668117015628155e-48
230
1
0
CIRCLE
5
182
100
AcDbEntity
8
0
100
AcDbCircle
10
-652.93301011493838
20
-398.85058593750585
30
0
40
3.2500000000000284
210
4.219021929555649e-32
220
5.1668117015628155e-48
230
1
0
CIRCLE
5
183
100
AcDbEntity
8
0
100
AcDbCircle
10
-724.93301011495248
20
-398.85058593750273
30
0
40
3.2500000000000284
210
4.219021929555649e-32
220
5.1668117015628155e-48
230
1
0
CIRCLE
5
184
100
AcDbEntity
8
0
100
AcDbCircle
10
-761.28301011495239
20
-422.50058593749952
30
-1.5777218104420236e-29
40
3.2500000000000284
210
4.219021929555649e-32
220
5.1668117015628155e-48
230
1
0
CIRCLE
5
185
100
AcDbEntity
8
0
100
AcDbCircle
10
-761.28301011495239
20
-452.50058593749952
30
0
40
3.2500000000000284
210
4.219021929555649e-32
220
5.1668117015628155e-48
230
1
0
CIRCLE
5
186
100
AcDbEntity
8
0
100
AcDbCircle
10
-761.2830101149525
20
-604.90058593750086
30
0
40
3.2500000000000284
210
4.219021929555649e-32
220
5.1668117015628155e-48
230
1
0
CIRCLE
5
187
100
AcDbEntity
8
0
100
AcDbCircle
10
-761.2830101149525
20
-634.90058593750086
30
0
40
3.2500000000000284
210
4.219021929555649e-32
220
5.1668117015628155e-48
230
1
0
CIRCLE
5
188
100
AcDbEntity
8
0
100
AcDbCircle
10
-721.28301011495239
20
-658.55058593750084
30
0
40
3.2500000000000284
210
4.219021929555649e-32
220
5.1668117015628155e-48
230
1
0
LWPOLYLINE
5
189
100
AcDbEntity
8
0
100
AcDbPolyline
90
8
70
1
43
0.0
10
-627.43301011494145
20
-415.20058593750593
10
-627.43301011494145
20
-496.99624773078824
42
-0.41421356237309503
10
-632.43301011494145
20
-501.99624773078824
10
-682.53301011494705
20
-501.99624773078824
42
-0.41421356237309503
10
-687.53301011494705
20
-496.99624773078824
10
-687.53301011494705
20
-415.20058593750593
42
-0.41421356237309503
10
-682.53301011494705
20
-410.20058593750593
10
-632.43301011494145
20
-410.20058593750593
42
-0.41421356237309087
0
LWPOLYLINE
5
190
100
AcDbEntity
8
0
100
AcDbPolyline
90
13
70
1
43
0.0
10
-767.63301011495537
20
-387.50058593750595
42
0.41421356237310752
10
-772.63301011495537
20
-392.50058593750595
10
-772.63301011495537
20
-659.90058593750086
42
0.41421356237311169
10
-767.63301011495537
20
-664.90058593750086
10
-714.93301011495532
20
-664.90058593750075
10
-714.93301011495521
20
-583.22278813624837
42
-0.11536979367283466
10
-714.41449740812902
20
-581.00552143124355
10
-686.59577834838092
20
-524.77898102578354
42
-0.28521403641532167
10
-682.11429105520722
20
-521.99624773078824
10
-612.43301011494145
20
-521.99624773078824
42
0.41421356237310336
10
-607.43301011494145
20
-516.99624773078824
10
-607.43301011494145
20
-392.50058593750595
42
0.41421356237310336
10
-612.43301011494145
20
-387.50058593750595
0
LWPOLYLINE
5
191
100
AcDbEntity
8
0
100
AcDbPolyline
90
7
70
1
43
0.0
10
-707.53301011494705
20
-415.20058593750593
10
-707.53301011494705
20
-521.99624773078824
10
-738.15152282178178
20
-583.88166517824129
42
-0.79312727612440737
10
-747.63301011495537
20
-581.66439847323659
10
-747.63301011495537
20
-415.20058593750593
42
-0.41421356237309503
10
-742.63301011495537
20
-410.20058593750593
10
-712.53301011494705
20
-410.20058593750593
42
-0.41421356237309503
0
LWPOLYLINE
5
192
100
AcDbEntity
8
0
100
AcDbPolyline
90
8
70
1
43
0.0
10
-808.68310546875
20
-604.20001220703102
10
-808.68310546874977
20
-496.20001220703102
42
-0.41421356237309503
10
-805.68310546874977
20
-493.20001220703102
10
-794.68310546874989
20
-493.20001220703102
42
-0.41421356237309503
10
-791.68310546874989
20
-496.20001220703102
10
-791.68310546874989
20
-604.20001220703102
42
-0.41421356237309503
10
-794.68310546874989
20
-607.20001220703102
10
-805.68310546875
20
-607.20001220703102
42
-0.41421356237309503
0
CIRCLE
5
193
100
AcDbEntity
8
0
100
AcDbCircle
10
-842.29266775117321
20
-541.28732708361463
30
0
40
1.6659999999999999
210
-2.3947971802426054e-47
220
-2.4651903288156624e-32
230
1
0
CIRCLE
5
194
100
AcDbEntity
8
0
100
AcDbCircle
10
-842.29266775117276
20
-694.28732708361497
30
0
40
1.6659999999999999
210
-2.3947971802426054e-47
220
-2.4651903288156624e-32
230
1
0
CIRCLE
5
195
100
AcDbEntity
8
0
100
AcDbCircle
10
-842.29266775117355
20
-424.28732708361463
30
0
40
1.6659999999999999
210
-2.3947971802426054e-47
220
-2.4651903288156624e-32
230
1
0
CIRCLE
5
196
100
AcDbEntity
8
0
100
AcDbCircle
10
-842.29266775117378
20
-559.28732708361463
30
0
40
1.6659999999999999
210
-2.3947971802426054e-47
220
-2.4651903288156624e-32
230
1
0
CIRCLE
5
197
100
AcDbEntity
8
0
100
AcDbCircle
10
-842.29266775117242
20
-676.28732708361497
30
0
40
1.6659999999999999
210
-2.3947971802426054e-47
220
-2.4651903288156624e-32
230
1
0
CIRCLE
5
198
100
AcDbEntity
8
0
100
AcDbCircle
10
-842.2926677511731
20
-406.28732708361468
30
0
40
1.6659999999999999
210
-2.3947971802426054e-47
220
-2.4651903288156624e-32
230
1
0
CIRCLE
5
199
100
AcDbEntity
8
0
100
AcDbCircle
10
-808.68310546875
20
-733.85001220703111
30
0
40
3.2500000000000311
210
-1.2631897214461593e-48
220
2.8048446264387219e-64
230
1
0
CIRCLE
5
200
100
AcDbEntity
8
0
100
AcDbCircle
10
-828.68310546875
20
-733.85001220703111
30
0
40
3.2500000000000311
210
-1.2631897214461593e-48
220
2.8048446264387219e-64
230
1
0
CIRCLE
5
201
100
AcDbEntity
8
0
100
AcDbCircle
10
-785.33310546874998
20
-514.20001220703102
30
0
40
3.2499999999999902
210
-2.1053162024113001e-48
220
-2.4651903288156624e-32
230
1
0
CIRCLE
5
202
100
AcDbEntity
8
0
100
AcDbCircle
10
-785.33310546874986
20
-442.20001220703114
30
0
40
3.2500000000000009
210
-8.0002015691620883e-48
220
1.7764015967452049e-63
230
1
0
CIRCLE
5
203
100
AcDbEntity
8
0
100
AcDbCircle
10
-785.33310546874998
20
-658.20001220703125
30
0
40
3.2499999999999902
210
-2.1053162024113001e-48
220
-2.4651903288156624e-32
230
1
0
CIRCLE
5
204
100
AcDbEntity
8
0
100
AcDbCircle
10
-785.33310546874998
20
-586.20001220703102
30
0
40
3.2499999999999902
210
-2.1053162024113001e-48
220
-2.4651903288156624e-32
230
1
0
LWPOLYLINE
5
205
100
AcDbEntity
8
0
100
AcDbPolyline
90
4
70
1
43
0.0
10
-778.98310546874995
20
-740.20001220703102
10
-778.98310546874984
20
-360.20001220703102
10
-851.38310546874982
20
-360.20001220703108
10
-851.38310546875005
20
-740.20001220703102
0
CIRCLE
5
206
100
AcDbEntity
8
0
100
AcDbCircle
10
-808.68310546875
20
-366.55001220703116
30
0
40
3.2500000000000009
210
-1.2631897214466358e-48
220
2.8048446264397798e-64
230
1
0
CIRCLE
5
207
100
AcDbEntity
8
0
100
AcDbCircle
10
-828.68310546875
20
-366.55001220703116
30
0
40
3.2500000000000009
210
-1.2631897214466358e-48
220
2.8048446264397798e-64
230
1
0
LWPOLYLINE
5
208
100
AcDbEntity
8
0
100
AcDbPolyline
90
12
70
1
43
0.0
10
-867.73303222656239
20
-386.98382568359369
10
-892.98186573228975
20
-386.98382568359369
42
0.22548051230995858
10
-900.73421558746281
20
-390.66709617197137
10
-950.48538208173545
20
-451.72534596039674
42
0.17261162704439648
10
-952.7330322265625
20
-458.04207547201912
10
-952.7330322265625
20
-490.92557589516832
42
0.17261162704440233
10
-950.48538208173545
20
-497.24230540679059
10
-900.73421558746281
20
-558.30055519521602
42
0.22548051230995483
10
-892.98186573228986
20
-561.98382568359375
10
-867.7330322265625
20
-561.98382568359375
42
0.41421356237310125
10
-857.7330322265625
20
-551.98382568359375
10
-857.73303222656239
20
-396.98382568359369
42
0.41421356237310125
0
CIRCLE
5
209
100
AcDbEntity
8
0
100
AcDbCircle
10
-872.7330322265625
20
-401.98382568359369
30
0
40
3.2500000000000018
210
5.4738221262688167e-48
220
2.4651903288156619e-32
230
1
0
CIRCLE
5
210
100
AcDbEntity
8
0
100
AcDbCircle
10
-892.7330322265625
20
-426.98382568359369
30
1.0995538372812268e-16
40
3.2500000000000018
210
5.4738221262688167e-48
220
2.4651903288156619e-32
230
1
0
CIRCLE
5
211
100
AcDbEntity
8
0
100
AcDbCircle
10
-910.2330322265625
20
-450.73382568359369
30
0
40
3.2500000000000018
210
5.4738221262688167e-48
220
2.4651903288156619e-32
230
1
0
CIRCLE
5
212
100
AcDbEntity
8
0
100
AcDbCircle
10
-927.7330322265625
20
-474.48382568359369
30
3.7591255655225951e-16
40
3.25
210
5.4738221262688167e-48
220
-2.4651903288156619e-32
230
1
0
CIRCLE
5
213
100
AcDbEntity
8
0
100
AcDbCircle
10
-872.7330322265625
20
-474.48382568359369
30
0
40
3.25
210
5.4738221262688167e-48
220
-2.4651903288156619e-32
230
1
0
CIRCLE
5
214
100
AcDbEntity
8
0
100
AcDbCircle
10
-910.2330322265625
20
-498.23382568359369
30
0
40
3.2500000000000018
210
5.4738221262688167e-48
220
2.4651903288156619e-32
230
1
0
CIRCLE
5
215
100
AcDbEntity
8
0
100
AcDbCircle
10
-892.7330322265625
20
-521.98382568359375
30
-4.6835329524874442e-16
40
3.2500000000000018
210
5.4738221262688167e-48
220
2.4651903288156619e-32
230
1
0
CIRCLE
5
216
100
AcDbEntity
8
0
100
AcDbCircle
10
-872.7330322265625
20
-546.98382568359375
30
0
40
3.2500000000000018
210
5.4738221262688167e-48
220
2.4651903288156619e-32
230
1
0
CIRCLE
5
217
100
AcDbEntity
8
0
100
AcDbCircle
10
-948.91056427447575
20
-648.24532470703139
30
0
40
2
210
4.2190219295556611e-32
220
5.1668117015628653e-48
230
1
0
CIRCLE
5
218
100
AcDbEntity
8
0
100
AcDbCircle
10
-948.91056427447438
20
-678.24532470703116
30
0
40
2
210
4.2190219295556611e-32
220
5.1668117015628653e-48
230
1
0
CIRCLE
5
219
100
AcDbEntity
8
0
100
AcDbCircle
10
-946.96383850119105
20
-663.24633169545314
30
0
40
2.0000000000000253
210
4.2190219295556611e-32
220
5.1668117015628653e-48
230
1
0
CIRCLE
5
220
100
AcDbEntity
8
0
100
AcDbCircle
10
-943.26074511723721
20
-534.39532470703398
30
0
40
3.2500000000000284
210
4.2190219295556611e-32
220
5.1668117015628653e-48
230
1
0
CIRCLE
5
221
100
AcDbEntity
8
0
100
AcDbCircle
10
-962.56056427446879
20
-534.39532470703409
30
-1.5777218104420236e-29
40
3.2500000000000284
210
4.2190219295556611e-32
220
5.1668117015628653e-48
230
1
0
CIRCLE
5
222
100
AcDbEntity
8
0
100
AcDbCircle
10
-943.26056427447509
20
-794.0953247070322
30
0
40
3.2500000000000284
210
4.2190219295556611e-32
220
5.1668117015628653e-48
230
1
0
CIRCLE
5
223
100
AcDbEntity
8
0
100
AcDbCircle
10
-962.56056427446879
20
-794.0953247070322
30
0
40
3.2500000000000284
210
4.2190219295556611e-32
220
5.1668117015628653e-48
230
1
0
LWPOLYLINE
5
224
100
AcDbEntity
8
0
100
AcDbPolyline
90
4
70
1
43
0.0
10
-968.9105642744662
20
-800.44532470703211
10
-936.91056427447256
20
-800.44532470703211
10
-936.91056427447256
20
-528.04532470703089
10
-968.9105642744662
20
-528.04532470703089
0
LWPOLYLINE
5
225
100
AcDbEntity
8
0
100
AcDbPolyline
90
6
70
1
43
0.0
10
-857.7331034759128
20
-568.33385930121483
10
-910.73310346537846
20
-568.33385930121403
10
-910.73310346537869
20
-580.15885930121374
10
-902.7331034686257
20
-675.15885930148727
10
-865.73310347916004
20
-675.15885930275192
10
-857.73310347591291
20
-580.15885930302545
0
CIRCLE
5
226
100
AcDbEntity
8
0
100
AcDbCircle
10
-865.73310347591348
20
-574.24635930121451
30
3.8084603264050815e-16
40
3.2500000000000284
210
1.1024694638955748e-31
220
4.9303806576313314e-32
230
1
0
CIRCLE
5
227
100
AcDbEntity
8
0
100
AcDbCircle
10
-902.73310346537971
20
-574.2463593012144
30
3.8084603264049237e-16
40
3.2500000000000284
210
9.3251557971471297e-32
220
4.9303806576313293e-32
230
1
0
CIRCLE
5
228
100
AcDbEntity
8
0
100
AcDbCircle
10
-873.38310346537764
20
-624.63385930212371
30
0
40
1.2645
210
8.1994424593841879e-33
220
-1.2716603556065793e-48
230
1
0
CIRCLE
5
229
100
AcDbEntity
8
0
100
AcDbCircle
10
-895.08310346537792
20
-624.63385930212371
30
0
40
1.2645
210
8.1994424593841879e-33
220
-1.2716603556065793e-48
230
1
0
CIRCLE
5
230
100
AcDbEntity
8
0
100
AcDbCircle
10
-895.08310346537792
20
-656.38385930212371
30
0
40
1.2645
210
8.1994424593841879e-33
220
-1.2716603556065793e-48
230
1
0
CIRCLE
5
231
100
AcDbEntity
8
0
100
AcDbCircle
10
-873.38310346537787
20
-656.38385930212371
30
0
40
1.2645
210
8.1994424593841879e-33
220
-1.2716603556065793e-48
230
1
0
LWPOLYLINE
5
232
100
AcDbEntity
8
0
100
AcDbPolyline
90
4
70
1
43
0.0
10
-760.5504150390625
20
-671.25042724609386
10
-690.5504150390625
20
-671.25042724609386
10
-690.5504150390625
20
-723.25042724609375
10
-760.5504150390625
20
-723.25042724609386
0
CIRCLE
5
233
100
AcDbEntity
8
0
100
AcDbCircle
10
-725.5504150390625
20
-717.25042724609375
30
0
40
4.6000000000000005
210
5.4738221262688167e-48
220
2.4651903288156619e-32
230
1
0
CIRCLE
5
234
100
AcDbEntity
8
0
100
AcDbCircle
10
-725.5504150390625
20
-676.92542724609382
30
0
40
4.6000000000000005
210
5.4738221262688167e-48
220
2.4651903288156619e-32
230
1
0
LWPOLYLINE
5
235
100
AcDbEntity
8
0
100
AcDbPolyline
90
18
70
1
43
0.0
10
-512.60042815715542
20
-322.20000808245055
10
-594.59442815716659
20
-322.20000808245055
42
0.41421356237310336
10
-599.59442815716659
20
-327.20000808245055
10
-599.59442815716648
20
-517.74217418982505
42
-0.18192554821276199
10
-601.08292014382698
20
-521.69771403232107
10
-652.20042815717102
20
-580.00000808243635
10
-652.20042815717102
20
-592.70000808243628
10
-684.20042815716465
20
-592.70000808243606
10
-684.20042815716545
20
-740.20000808243606
10
-397.69976129949316
20
-740.2000080824389
10
-397.70042815716033
20
-592.7000080824381
10
-427.20042815717136
20
-592.70000808243776
10
-427.20042815717125
20
-579.97948578946966
10
-452.276047864747
20
-579.97948578946966
42
-0.21596595946063429
10
-456.78688501889235
20
-577.93579065244239
10
-506.1112653113006
20
-521.69789824164172
42
-0.18196934760009922
10
-507.60042815715531
20
-517.74159337866888
10
-507.60042815715536
20
-327.20000808245049
42
0.41421356237310336
0
LWPOLYLINE
5
236
100
AcDbEntity
8
0
100
AcDbPolyline
90
4
70
1
43
0.0
10
-560.14724731440708
20
-344.20000808244913
42
0.99999999999999989
10
-563.2472473144071
20
-344.20000808244913
10
-563.2472473144071
20
-356.20000808244919
42
0.99999999999999989
10
-560.14724731440708
20
-356.20000808244919
0
LWPOLYLINE
5
237
100
AcDbEntity
8
0
100
AcDbPolyline
90
4
70
1
43
0.0
10
-543.94724731440715
20
-344.20000808244907
42
0.99999999999999989
10
-547.04724731440717
20
-344.20000808244907
10
-547.04724731440717
20
-356.20000808244913
42
0.99999999999999989
10
-543.94724731440715
20
-356.20000808244913
0
LWPOLYLINE
5
238
100
AcDbEntity
8
0
100
AcDbPolyline
90
4
70
1
43
0.0
10
-543.94724731440704
20
-369.60000808244905
42
0.99999999999999989
10
-547.04724731440706
20
-369.60000808244905
10
-547.04724731440706
20
-381.60000808244911
42
0.99999999999999989
10
-543.94724731440704
20
-381.60000808244911
0
LWPOLYLINE
5
239
100
AcDbEntity
8
0
100
AcDbPolyline
90
4
70
1
43
0.0
10
-560.14724731440708
20
-369.60000808244911
42
0.99999999999999989
10
-563.2472473144071
20
-369.60000808244911
10
-563.2472473144071
20
-381.60000808244916
42
0.99999999999999989
10
-560.14724731440708
20
-381.60000808244916
0
CIRCLE
5
240
100
AcDbEntity
8
0
100
AcDbCircle
10
-591.60042815715815
20
-571.30000808244608
30
2.0022073717624063e-17
40
3.2500000000000284
210
5.4738221262688167e-48
220
-2.4651903288156619e-32
230
1
0
CIRCLE
5
241
100
AcDbEntity
8
0
100
AcDbCircle
10
-591.60042815716122
20
-596.3000080824462
30
-2.4903000228945108e-16
40
3.2500000000000284
210
5.4738221262688167e-48
220
-2.4651903288156619e-32
230
1
0
CIRCLE
5
242
100
AcDbEntity
8
0
100
AcDbCircle
10
-516.60042815716099
20
-596.30000808245552
30
-2.4903000228829934e-16
40
3.2500000000000284
210
5.4738221262688167e-48
220
-2.4651903288156619e-32
230
1
0
CIRCLE
5
243
100
AcDbEntity
8
0
100
AcDbCircle
10
-516.60042815715792
20
-571.30000808245541
30
2.0022073718760023e-17
40
3.2500000000000284
210
5.4738221262688167e-48
220
-2.4651903288156619e-32
230
1
0
LWPOLYLINE
5
244
100
AcDbEntity
8
0
100
AcDbPolyline
90
8
70
1
43
0.0
10
-644.20042815716511
20
-690.20000808243753
10
-644.20042815716533
20
-645.20000808243753
42
-0.41421356237307422
10
-634.20042815716522
20
-635.20000808243753
10
-447.70042815716511
20
-635.20000808243742
42
-0.41421356237310125
10
-437.70042815716511
20
-645.20000808243753
10
-437.70042815716488
20
-690.20000808243765
42
-0.41421356237308049
10
-447.70042815716511
20
-700.20000808243753
10
-634.20042815716511
20
-700.20000808243753
42
-0.41421356237308671
0
CIRCLE
5
245
100
AcDbEntity
8
0
100
AcDbCircle
10
-504.231066894577
20
-661.90214147385268
30
0
40
3.2500000000000284
210
-6.008922504971006e-31
220
3.0817974005372365e-45
230
1
0
CIRCLE
5
246
100
AcDbEntity
8
0
100
AcDbCircle
10
-474.93106689457716
20
-661.90214147385268
30
0
40
3.2500000000000284
210
-6.008922504971006e-31
220
3.0817974005372365e-45
230
1
0
CIRCLE
5
247
100
AcDbEntity
8
0
100
AcDbCircle
10
-475.86376989536109
20
-677.96642284923155
30
0
40
1.6659999999999999
210
5.8287261327992802e-31
220
-2.9893800476947496e-45
230
1
0
CIRCLE
5
248
100
AcDbEntity
8
0
100
AcDbCircle
10
-499.86676989536113
20
-677.96642284923155
30
0
40
1.6659999999999999
210
5.8287261327992802e-31
220
-2.9893800476947496e-45
230
1
0
LWPOLYLINE
5
249
100
AcDbEntity
8
0
100
AcDbPolyline
90
8
70
1
43
0.0
10
-445.78106079995587
20
-647.31133700462863
42
0.41421356237308671
10
-450.78106079995587
20
-642.31133700462874
10
-529.78106212615921
20
-642.31133700462874
42
0.41421356237310752
10
-534.78106212615921
20
-647.31133700462863
10
-534.7810621261591
20
-678.04642284923364
42
0.4142135623730992
10
-529.78106212615921
20
-683.04642284923352
10
-450.78106079995592
20
-683.04642284923386
42
0.41421356237309503
10
-445.78106079995592
20
-678.04642284923375
0
LWPOLYLINE
5
250
100
AcDbEntity
8
0
100
AcDbPolyline
90
8
70
1
43
0.0
10
-543.13105468754588
20
-688.31122238630087
10
-581.13105468754588
20
-688.31122238630087
42
-0.41421356237309503
10
-583.13105468754588
20
-686.31122238630087
10
-583.13105468754566
20
-644.31122238630087
42
-0.41421356237307422
10
-581.131054687546
20
-642.31122238630087
10
-543.13105468754588
20
-642.31122238630064
42
-0.4142135623730846
10
-541.13105468754588
20
-644.31122238630087
10
-541.13105468754588
20
-686.31122238630087
42
-0.41421356237309503
0
CIRCLE
5
251
100
AcDbEntity
8
0
100
AcDbCircle
10
-576.78105468754586
20
-679.96122238630073
30
0
40
3.2500000000000284
210
4.2642142368542438e-33
220
5.222156316042123e-49
230
1
0
CIRCLE
5
252
100
AcDbEntity
8
0
100
AcDbCircle
10
-576.78105468754586
20
-650.66122238630089
30
0
40
3.2500000000000284
210
4.2642142368542438e-33
220
5.222156316042123e-49
230
1
0
CIRCLE
5
253
100
AcDbEntity
8
0
100
AcDbCircle
10
-562.13105468754645
20
-646.56122238630087
30
-2.000331158803274e-16
40
1.5000000000000568
210
1.1037138152969293e-33
220
1.3516595910780975e-49
230
1
0
CIRCLE
5
254
100
AcDbEntity
8
0
100
AcDbCircle
10
-562.13105468754634
20
-684.06122238630076
30
-4.849971757838551e-17
40
1.4999999999999858
210
1.1037138152949807e-33
220
1.3516595910757111e-49
230
1
0
CIRCLE
5
255
100
AcDbEntity
8
0
100
AcDbCircle
10
-547.48105468754591
20
-679.96122238630073
30
0
40
3.2500000000000284
210
4.2642142368542438e-33
220
5.222156316042123e-49
230
1
0
CIRCLE
5
256
100
AcDbEntity
8
0
100
AcDbCircle
10
-547.48105468754591
20
-650.66122238630089
30
0
40
3.2500000000000284
210
4.2642142368542438e-33
220
5.222156316042123e-49
230
1
0
LWPOLYLINE
5
257
100
AcDbEntity
8
0
100
AcDbPolyline
90
9
70
1
43
0.0
10
-900.4735107421875
20
-806.79531860351562
10
-970.4735107421875
20
-806.79531860351562
10
-970.4735107421875
20
-924.66231860351559
10
-942.08151074218767
20
-924.66231860351559
42
-0.99999999999999989
10
-929.38151074218752
20
-924.66231860351559
10
-814.4735107421875
20
-924.66231860351559
10
-814.4735107421875
20
-884.6623186035157
10
-887.77351074218745
20
-884.6623186035157
42
-0.41421356237309837
10
-900.4735107421875
20
-871.96231860351577
0
CIRCLE
5
258
100
AcDbEntity
8
0
100
AcDbCircle
10
-934.9735107421875
20
-884.66231860351559
30
0
40
6.0000000000000009
210
1.1037138152953748e-33
220
1.3516595910761938e-49
230
1
0
CIRCLE
5
259
100
AcDbEntity
8
0
100
AcDbCircle
10
-964.12351074218748
20
-859.37881860351558
30
0
40
3.25
210
4.2642142368539154e-33
220
5.2221563160417211e-49
230
1
0
CIRCLE
5
260
100
AcDbEntity
8
0
100
AcDbCircle
10
-829.4735107421875
20
-897.16231860351581
30
0
40
3.2499999999999902
210
4.264214236853795e-33
220
5.2221563160415738e-49
230
1
0
CIRCLE
5
261
100
AcDbEntity
8
0
100
AcDbCircle
10
-964.12351074218748
20
-885.67056860351556
30
0
40
3.25
210
4.2642142368539154e-33
220
5.2221563160417211e-49
230
1
0
CIRCLE
5
262
100
AcDbEntity
8
0
100
AcDbCircle
10
-906.82351074218764
20
-885.67056860351556
30
0
40
3.25
210
4.2642142368539154e-33
220
5.2221563160417211e-49
230
1
0
CIRCLE
5
263
100
AcDbEntity
8
0
100
AcDbCircle
10
-906.82351074218764
20
-859.37881860351558
30
0
40
3.2499999999999902
210
4.264214236853795e-33
220
5.2221563160415738e-49
230
1
0
CIRCLE
5
264
100
AcDbEntity
8
0
100
AcDbCircle
10
-964.12351074218748
20
-833.0870686035156
30
0
40
3.25
210
4.2642142368539154e-33
220
5.2221563160417211e-49
230
1
0
CIRCLE
5
265
100
AcDbEntity
8
0
100
AcDbCircle
10
-906.82351074218764
20
-833.0870686035156
30
0
40
3.2499999999999902
210
4.264214236853795e-33
220
5.2221563160415738e-49
230
1
0
CIRCLE
5
266
100
AcDbEntity
8
0
100
AcDbCircle
10
-950.4735107421875
20
-918.31231860351568
30
0
40
3.25
210
4.2642142368539154e-33
220
5.2221563160417211e-49
230
1
0
CIRCLE
5
267
100
AcDbEntity
8
0
100
AcDbCircle
10
-889.4735107421875
20
-918.31231860351545
30
0
40
3.2499999999999902
210
4.264214236853795e-33
220
5.2221563160415738e-49
230
1
0
CIRCLE
5
268
100
AcDbEntity
8
0
100
AcDbCircle
10
-837.4735107421875
20
-918.31231860351545
30
0
40
3.2500000000000107
210
4.2642142368540358e-33
220
5.2221563160418685e-49
230
1
0
CIRCLE
5
269
100
AcDbEntity
8
0
100
AcDbCircle
10
-829.4735107421875
20
-912.16231860351559
30
0
40
3.2499999999999902
210
4.264214236853795e-33
220
5.2221563160415738e-49
230
1
0
LWPOLYLINE
5
270
100
AcDbEntity
8
0
100
AcDbPolyline
90
8
70
1
43
0.0
10
-894.04998779296875
20
-867.4000244140625
10
-894.04998779296864
20
-756.55002441406259
42
-0.41421356237310336
10
-884.04998779296864
20
-746.55002441406259
10
-794.04998779296875
20
-746.55002441406259
42
-0.41421356237310336
10
-784.04998779296875
20
-756.55002441406259
10
-784.04998779296875
20
-867.4000244140625
42
-0.41421356237310336
10
-794.04998779296875
20
-877.4000244140625
10
-884.04998779296875
20
-877.4000244140625
42
-0.41421356237310336
0
CIRCLE
5
271
100
AcDbEntity
8
0
100
AcDbCircle
10
-884.0499877929683
20
-756.9000244140625
30
5.4500817343557689e-16
40
2.75
210
4.7818002978863501e-33
220
-2.4651903288156619e-32
230
1
0
CIRCLE
5
272
100
AcDbEntity
8
0
100
AcDbCircle
10
-794.04998779296875
20
-756.9000244140625
30
5.4500817343556112e-16
40
2.75
210
4.7818002978863501e-33
220
-2.4651903288156619e-32
230
1
0
CIRCLE
5
273
100
AcDbEntity
8
0
100
AcDbCircle
10
-794.04998779296875
20
-846.9000244140625
30
4.6459911951017482e-16
40
2.75
210
4.7818002978863501e-33
220
-2.4651903288156619e-32
230
1
0
CIRCLE
5
274
100
AcDbEntity
8
0
100
AcDbCircle
10
-884.0499877929683
20
-846.9000244140625
30
4.645991195101906e-16
40
2.75
210
4.7818002978863501e-33
220
-2.4651903288156619e-32
230
1
0
CIRCLE
5
275
100
AcDbEntity
8
0
100
AcDbCircle
10
-867.69998779296873
20
-783.35002441406243
30
0
40
3.25
210
8.2296189395865775e-33
220
2.7405747698381944e-80
230
1
0
CIRCLE
5
276
100
AcDbEntity
8
0
100
AcDbCircle
10
-867.69998779296873
20
-823.35002441406243
30
0
40
3.25
210
8.2296189395865775e-33
220
2.7405747698381944e-80
230
1
0
CIRCLE
5
277
100
AcDbEntity
8
0
100
AcDbCircle
10
-852.04998779296875
20
-836.05002441406236
30
0
40
3.25
210
8.2296189395865775e-33
220
2.7405747698381944e-80
230
1
0
CIRCLE
5
278
100
AcDbEntity
8
0
100
AcDbCircle
10
-826.04998779296875
20
-836.05002441406236
30
0
40
3.25
210
8.2296189395865775e-33
220
2.7405747698381944e-80
230
1
0
CIRCLE
5
279
100
AcDbEntity
8
0
100
AcDbCircle
10
-810.39998779296877
20
-823.35002441406243
30
0
40
3.2499999999999902
210
8.2296189395865173e-33
220
2.7405747698381753e-80
230
1
0
CIRCLE
5
280
100
AcDbEntity
8
0
100
AcDbCircle
10
-810.39998779296866
20
-783.35002441406243
30
0
40
3.2499999999999902
210
8.2296189395865173e-33
220
2.7405747698381753e-80
230
1
0
CIRCLE
5
281
100
AcDbEntity
8
0
100
AcDbCircle
10
-808.73291692429632
20
-980.39994415728859
30
0
40
2.0000000000000009
210
-2.9421793928694715e-47
220
-1.4791141972893971e-31
230
1
0
CIRCLE
5
282
100
AcDbEntity
8
0
100
AcDbCircle
10
-744.92133112255465
20
-980.39994415728574
30
0
40
2.0000000000000009
210
-2.9421793928694715e-47
220
-1.4791141972893971e-31
230
1
0
CIRCLE
5
283
100
AcDbEntity
8
0
100
AcDbCircle
10
-709.92133112255465
20
-980.39994415728415
30
0
40
1.9999999999999905
210
4.7211715839067854e-47
220
1.9721522630525295e-31
230
1
0
CIRCLE
5
284
100
AcDbEntity
8
0
100
AcDbCircle
10
-843.73291692429632
20
-980.39994415729007
30
0
40
2.0000000000000258
210
8.7581154020302117e-47
220
3.944304526105059e-31
230
1
0
CIRCLE
5
285
100
AcDbEntity
8
0
100
AcDbCircle
10
-905.67712402342886
20
-969.24994415728088
30
0
40
3.2500000000000289
210
-3.9579944605327273e-47
220
-1.7256332301709633e-31
230
1
0
CIRCLE
5
286
100
AcDbEntity
8
0
100
AcDbCircle
10
-905.67712402342886
20
-986.04994415729197
30
0
40
3.2500000000000289
210
-3.9579944605327273e-47
220
-1.7256332301709633e-31
230
1
0
CIRCLE
5
287
100
AcDbEntity
8
0
100
AcDbCircle
10
-645.97712402343632
20
-969.24994415728088
30
0
40
3.2500000000000289
210
-3.9579944605327273e-47
220
-1.7256332301709633e-31
230
1
0
CIRCLE
5
288
100
AcDbEntity
8
0
100
AcDbCircle
10
-645.97712402343632
20
-986.04994415729209
30
0
40
3.2500000000000289
210
-3.9579944605327273e-47
220
-1.7256332301709633e-31
230
1
0
LWPOLYLINE
5
289
100
AcDbEntity
8
0
100
AcDbPolyline
90
4
70
1
43
0.0
10
-639.62712402342606
20
-962.89994415727824
10
-912.0271240234265
20
-962.89994415727824
10
-912.0271240234265
20
-992.39994415728927
10
-639.62712402342606
20
-992.39994415728927
0
LWPOLYLINE
5
290
100
AcDbEntity
8
0
100
AcDbPolyline
90
14
70
1
43
0.0
10
-777.6999800386684
20
-746.55001116461779
10
-777.6999800386684
20
-950.20001116461776
42
0.41421356237310819
10
-771.34998003866849
20
-956.55001116461779
10
-667.19998003866851
20
-956.55001116461779
42
0.41421356237312001
10
-662.1999800386684
20
-951.55001116461779
10
-662.1999800386684
20
-845.64201116461777
42
-0.41421356237310336
10
-657.1999800386684
20
-840.64201116461754
10
-518.1999800386684
20
-840.64201116461777
42
-0.41421356237309087
10
-513.1999800386684
20
-845.64201116461777
10
-513.19998003866851
20
-951.55001116461779
42
0.41421356237310752
10
-508.19998003866851
20
-956.55001116461779
10
-404.04998003866842
20
-956.55001116461779
42
0.41421356237310486
10
-397.69998003866846
20
-950.20001116461776
10
-397.69998003866846
20
-746.55001116461779
0
CIRCLE
5
291
100
AcDbEntity
8
0
100
AcDbCircle
10
-404.04998003866837
20
-799.05001116461733
30
0
40
3.1749999999999994
210
-1.1629273473041115e-32
220
3.1623043151116692e-64
230
1
0
CIRCLE
5
292
100
AcDbEntity
8
0
100
AcDbCircle
10
-420.69998003866834
20
-766.55001116461767
30
-4.936553372265933e-16
40
3.25
210
8.2296189395865775e-33
220
2.7405747698381944e-80
230
1
0
CIRCLE
5
293
100
AcDbEntity
8
0
100
AcDbCircle
10
-455.69998003866834
20
-814.05001116461767
30
-2.2769816440244069e-16
40
3.2500000000000018
210
8.2296189395865857e-33
220
2.740574769838197e-80
230
1
0
CIRCLE
5
294
100
AcDbEntity
8
0
100
AcDbCircle
10
-420.69998003866834
20
-861.55001116461767
30
3.8259008421696144e-17
40
3.25
210
8.2296189395865775e-33
220
2.7405747698381944e-80
230
1
0
CIRCLE
5
295
100
AcDbEntity
8
0
100
AcDbCircle
10
-404.0499800386682
20
-851.55001116461733
30
0
40
3.1749999999999994
210
-1.1629273473041115e-32
220
3.1623043151116692e-64
230
1
0
CIRCLE
5
296
100
AcDbEntity
8
0
100
AcDbCircle
10
-404.04998003866814
20
-904.05001116461733
30
0
40
3.1749999999999994
210
-1.1629273473041115e-32
220
3.1623043151116692e-64
230
1
0
CIRCLE
5
297
100
AcDbEntity
8
0
100
AcDbCircle
10
-482.4482125119676
20
-934.90629541489227
30
0
40
1.6659999999999999
210
8.696295472421749e-33
220
2.8959843873371905e-80
230
1
0
CIRCLE
5
298
100
AcDbEntity
8
0
100
AcDbCircle
10
-470.59427443215623
20
-923.05235733508096
30
0
40
1.6659999999999999
210
8.696295472421749e-33
220
2.8959843873371905e-80
230
1
0
CIRCLE
5
299
100
AcDbEntity
8
0
100
AcDbCircle
10
-461.075202943823
20
-932.57142882341429
30
0
40
1.6659999999999999
210
8.696295472421749e-33
220
2.8959843873371905e-80
230
1
0
CIRCLE
5
300
100
AcDbEntity
8
0
100
AcDbCircle
10
-472.92914102363426
20
-944.42536690322549
30
0
40
1.6659999999999999
210
8.696295472421749e-33
220
2.8959843873371905e-80
230
1
0
CIRCLE
5
301
100
AcDbEntity
8
0
100
AcDbCircle
10
-587.69998003866829
20
-821.14201116461754
30
0
40
5
210
2.5407181807812022e-33
220
8.4609362774067318e-81
230
1
0
CIRCLE
5
302
100
AcDbEntity
8
0
100
AcDbCircle
10
-599.6999800386684
20
-809.14201116461754
30
0
40
2.5175000000000001
210
2.7120819573622333e-33
220
9.0316009047846733e-81
230
1
0
CIRCLE
5
303
100
AcDbEntity
8
0
100
AcDbCircle
10
-599.6999800386684
20
-833.14201116461754
30
0
40
2.5175000000000001
210
2.7120819573622333e-33
220
9.0316009047846733e-81
230
1
0
CIRCLE
5
304
100
AcDbEntity
8
0
100
AcDbCircle
10
-575.6999800386684
20
-833.14201116461754
30
0
40
2.5175000000000001
210
2.7120819573622333e-33
220
9.0316009047846733e-81
230
1
0
CIRCLE
5
305
100
AcDbEntity
8
0
100
AcDbCircle
10
-575.6999800386684
20
-809.14201116461766
30
0
40
2.5175000000000001
210
2.7120819573622333e-33
220
9.0316009047846733e-81
230
1
0
CIRCLE
5
306
100
AcDbEntity
8
0
100
AcDbCircle
10
-754.6999800386684
20
-766.55001116461767
30
-4.936553372265933e-16
40
3.2500000000000284
210
8.2296189395867417e-33
220
2.7405747698382491e-80
230
1
0
CIRCLE
5
307
100
AcDbEntity
8
0
100
AcDbCircle
10
-771.34998003866838
20
-799.05001116461767
30
0
40
3.1749999999999994
210
7.7816739979483549e-33
220
2.591403026365947e-80
230
1
0
CIRCLE
5
308
100
AcDbEntity
8
0
100
AcDbCircle
10
-719.6999800386684
20
-814.05001116461767
30
-2.2769816440244069e-16
40
3.2499999999999929
210
8.2296189395865337e-33
220
2.7405747698381798e-80
230
1
0
CIRCLE
5
309
100
AcDbEntity
8
0
100
AcDbCircle
10
-771.34998003866838
20
-851.55001116461767
30
0
40
3.1749999999999994
210
7.7816739979483549e-33
220
2.591403026365947e-80
230
1
0
CIRCLE
5
310
100
AcDbEntity
8
0
100
AcDbCircle
10
-754.69998003866851
20
-861.55001116461767
30
3.8259008421696144e-17
40
3.2500000000000284
210
8.2296189395867417e-33
220
2.7405747698382491e-80
230
1
0
CIRCLE
5
311
100
AcDbEntity
8
0
100
AcDbCircle
10
-771.34998003866838
20
-904.05001116461767
30
0
40
3.1749999999999994
210
7.7816739979483549e-33
220
2.591403026365947e-80
230
1
0
CIRCLE
5
312
100
AcDbEntity
8
0
100
AcDbCircle
10
-704.80568564518069
20
-923.05235733508096
30
0
40
1.6659999999999999
210
8.696295472421749e-33
220
2.8959843873371905e-80
230
1
0
CIRCLE
5
313
100
AcDbEntity
8
0
100
AcDbCircle
10
-714.32475713351391
20
-932.57142882341429
30
0
40
1.6659999999999999
210
8.696295472421749e-33
220
2.8959843873371905e-80
230
1
0
CIRCLE
5
314
100
AcDbEntity
8
0
100
AcDbCircle
10
-702.4708190537026
20
-944.42536690322549
30
0
40
1.6659999999999999
210
8.696295472421749e-33
220
2.8959843873371905e-80
230
1
0
CIRCLE
5
315
100
AcDbEntity
8
0
100
AcDbCircle
10
-692.95174756536926
20
-934.90629541489227
30
0
40
1.6659999999999999
210
8.696295472421749e-33
220
2.8959843873371905e-80
230
1
0
LWPOLYLINE
5
316
100
AcDbEntity
8
0
100
AcDbPolyline
90
6
70
1
43
0.0
10
-68.150168404399693
20
-790.75515944954509
10
-68.150168404399707
20
-748.75515944954509
10
-75.085516777922379
20
-748.75515944954509
10
-104.35016840439964
20
-778.01981107602171
10
-104.35016840439964
20
-785.75515944954509
42
0.41421356237309709
10
-99.350168404399639
20
-790.75515944954509
0
LWPOLYLINE
5
317
100
AcDbEntity
8
0
100
AcDbPolyline
90
6
70
1
43
0.0
10
-104.13874150770916
20
-719.8930094957675
10
-104.13874150770917
20
-761.8930094957675
10
-97.203393134186484
20
-761.89300949576727
10
-67.93874150770921
20
-732.62835786929088
10
-67.93874150770921
20
-724.8930094957675
42
0.41421356237309764
10
-72.93874150770921
20
-719.8930094957675
0
LWPOLYLINE
5
318
100
AcDbEntity
8
0
100
AcDbPolyline
90
4
70
1
43
0.0
10
-97.68365478515625
20
-713.5430908203125
10
-73.183654785156236
20
-713.5430908203125
10
-73.183654785156222
20
-663.5430908203125
10
-97.68365478515625
20
-663.5430908203125
0
CIRCLE
5
319
100
AcDbEntity
8
0
100
AcDbCircle
10
-85.433654785156236
20
-688.5430908203125
30
0
40
2.641550000000001
210
0
220
0
230
1
0
CIRCLE
5
320
100
AcDbEntity
8
0
100
AcDbCircle
10
-85.433654785156236
20
-673.5430908203125
30
0
40
4.0000000000000009
210
0
220
0
230
1
0
CIRCLE
5
321
100
AcDbEntity
8
0
100
AcDbCircle
10
-85.43365478515625
20
-703.5430908203125
30
0
40
4.0000000000000009
210
0
220
0
230
1
0
LWPOLYLINE
5
322
100
AcDbEntity
8
0
100
AcDbPolyline
90
4
70
1
43
0.0
10
-332.40127563476562
20
-881.78924560546875
10
-307.90127563476562
20
-881.78924560546875
10
-307.90127563476562
20
-831.78924560546875
10
-332.40127563476562
20
-831.78924560546875
0
CIRCLE
5
323
100
AcDbEntity
8
0
100
AcDbCircle
10
-320.15127563476562
20
-856.78924560546875
30
0
40
3.1170000000000004
210
0
220
0
230
1
0
CIRCLE
5
324
100
AcDbEntity
8
0
100
AcDbCircle
10
-320.15127563476562
20
-841.78924560546875
30
0
40
4.0000000000000009
210
0
220
0
230
1
0
CIRCLE
5
325
100
AcDbEntity
8
0
100
AcDbCircle
10
-320.15127563476562
20
-871.78924560546875
30
0
40
4.0000000000000009
210
0
220
0
230
1
0
LWPOLYLINE
5
326
100
AcDbEntity
8
0
100
AcDbPolyline
90
8
70
1
43
0.0
10
-334.24398803710938
20
-825.43923950195312
10
-334.24398803710938
20
-690.78923950195303
10
-334.24398803710938
20
-678.08923950195299
10
-334.24398803710938
20
-669.43923950195301
10
-299.24398803710938
20
-669.43923950195301
10
-299.24398803710932
20
-678.0892395019531
10
-299.24398803710932
20
-690.78923950195303
10
-299.24398803710938
20
-825.43923950195312
0
CIRCLE
5
327
100
AcDbEntity
8
0
100
AcDbCircle
10
-322.57732137044263
20
-761.78923950195303
30
0
40
3.2500000000000009
210
0
220
0
230
1
0
CIRCLE
5
328
100
AcDbEntity
8
0
100
AcDbCircle
10
-310.91065470377606
20
-761.78923950195315
30
0
40
3.2500000000000009
210
0
220
0
230
1
0
CIRCLE
5
329
100
AcDbEntity
8
0
100
AcDbCircle
10
-310.91065470377606
20
-819.08923950195299
30
0
40
3.2500000000000009
210
0
220
0
230
1
0
CIRCLE
5
330
100
AcDbEntity
8
0
100
AcDbCircle
10
-322.57732137044263
20
-819.08923950195299
30
0
40
3.2500000000000009
210
0
220
0
230
1
0
LWPOLYLINE
5
331
100
AcDbEntity
8
0
100
AcDbPolyline
90
8
70
1
43
0.0
10
-136.84977325884455
20
-990.59990646834513
10
-136.84977325884446
20
-977.89990646834497
10
-104.84977325885083
20
-977.89990646834531
10
-104.84977325885062
20
-937.89990646834531
10
-391.34995410161252
20
-937.89990646834235
10
-391.34977325885529
20
-977.89990646834326
10
-361.84977325884415
20
-977.89990646834337
10
-361.84977325884427
20
-990.59990646834365
0
CIRCLE
5
332
100
AcDbEntity
8
0
100
AcDbCircle
10
-30.350006103515554
20
-793.24996948242176
30
0
40
2.5175000000000001
210
-3.3990776836172338e-33
220
8.4909021903931415e-49
230
1
0
CIRCLE
5
333
100
AcDbEntity
8
0
100
AcDbCircle
10
-30.35000610351554
20
-868.24996948242176
30
0
40
2.5175000000000001
210
-3.3990776836172338e-33
220
8.4909021903931415e-49
230
1
0
CIRCLE
5
334
100
AcDbEntity
8
0
100
AcDbCircle
10
-285.35000610351551
20
-649.39996948242128
30
0
40
1.6659999999999999
210
-3.3990776836172393e-33
220
8.4909021903931567e-49
230
1
0
CIRCLE
5
335
100
AcDbEntity
8
0
100
AcDbCircle
10
-117.35000610351554
20
-649.39996948242128
30
0
40
1.6659999999999999
210
-3.3990776836172393e-33
220
8.4909021903931567e-49
230
1
0
CIRCLE
5
336
100
AcDbEntity
8
0
100
AcDbCircle
10
-55.350006103515597
20
-900.24996948242176
30
0
40
1.6659999999999999
210
-3.3990776836172393e-33
220
8.4909021903931567e-49
230
1
0
CIRCLE
5
337
100
AcDbEntity
8
0
100
AcDbCircle
10
-347.35000610351562
20
-681.39996948242151
30
0
40
1.6659999999999999
210
-3.3990776836172393e-33
220
8.4909021903931567e-49
230
1
0
CIRCLE
5
338
100
AcDbEntity
8
0
100
AcDbCircle
10
-285.35000610351562
20
-900.24996948242165
30
0
40
1.6659999999999999
210
-3.3990776836172393e-33
220
8.4909021903931567e-49
230
1
0
CIRCLE
5
339
100
AcDbEntity
8
0
100
AcDbCircle
10
-55.350006103515561
20
-681.39996948242128
30
0
40
1.6659999999999999
210
-3.3990776836172393e-33
220
8.4909021903931567e-49
230
1
0
CIRCLE
5
340
100
AcDbEntity
8
0
100
AcDbCircle
10
-117.35000610351557
20
-900.24996948242165
30
0
40
1.6659999999999999
210
-3.3990776836172393e-33
220
8.4909021903931567e-49
230
1
0
CIRCLE
5
341
100
AcDbEntity
8
0
100
AcDbCircle
10
-347.35000610351557
20
-900.24996948242165
30
0
40
1.6659999999999999
210
-3.3990776836172393e-33
220
8.4909021903931567e-49
230
1
0
CIRCLE
5
342
100
AcDbEntity
8
0
100
AcDbCircle
10
-385.0000061035156
20
-850.01246948242169
30
0
40
3.2500000000000306
210
8.2296189395867554e-33
220
2.4651903288156619e-32
230
1
0
CIRCLE
5
343
100
AcDbEntity
8
0
100
AcDbCircle
10
-385.0000061035156
20
-686.93746948242176
30
0
40
3.24999999999996
210
8.2296189395863421e-33
220
2.7405747698381161e-80
230
1
0
CIRCLE
5
344
100
AcDbEntity
8
0
100
AcDbCircle
10
-385.0000061035156
20
-768.47496948242178
30
0
40
3.2500000000000306
210
8.2296189395867554e-33
220
2.4651903288156619e-32
230
1
0
LWPOLYLINE
5
345
100
AcDbEntity
8
0
100
AcDbPolyline
90
8
70
1
43
0.0
10
-61.350006103515533
20
-665.39996948242162
10
-61.350006103515597
20
-884.24996948242188
42
-0.41421356237309503
10
-71.350006103515597
20
-894.24996948242188
10
-101.35000610351557
20
-894.24996948242188
42
-0.41421356237309503
10
-111.35000610351557
20
-884.24996948242188
10
-111.35000610351553
20
-665.39996948242162
42
-0.41421356237309503
10
-101.35000610351553
20
-655.39996948242162
10
-71.350006103515526
20
-655.39996948242162
42
-0.41421356237309503
0
LWPOLYLINE
5
346
100
AcDbEntity
8
0
100
AcDbPolyline
90
8
70
1
43
0.0
10
-291.35000610351568
20
-665.39996948242162
10
-291.35000610351568
20
-884.24996948242188
42
-0.41421356237309503
10
-301.35000610351568
20
-894.24996948242188
10
-331.35000610351568
20
-894.24996948242188
42
-0.41421356237309503
10
-341.35000610351568
20
-884.24996948242188
10
-341.35000610351562
20
-665.39996948242162
42
-0.41421356237309503
10
-331.35000610351562
20
-655.39996948242162
10
-301.35000610351562
20
-655.39996948242162
42
-0.41421356237309503
0
CIRCLE
5
347
100
AcDbEntity
8
0
100
AcDbCircle
10
-321.35000610351562
20
-925.19996948242181
30
0
40
3.2499999999999929
210
-3.3990776836172338e-33
220
8.4909021903931415e-49
230
1
0
CIRCLE
5
348
100
AcDbEntity
8
0
100
AcDbCircle
10
-81.350006103515625
20
-925.19996948242181
30
0
40
3.2500000000000018
210
-3.3990776836172283e-33
220
8.4909021903931263e-49
230
1
0
CIRCLE
5
349
100
AcDbEntity
8
0
100
AcDbCircle
10
-261.35000610351562
20
-925.19996948242181
30
0
40
3.2499999999999929
210
-3.3990776836172338e-33
220
8.4909021903931415e-49
230
1
0
CIRCLE
5
350
100
AcDbEntity
8
0
100
AcDbCircle
10
-141.35000610351562
20
-925.19996948242181
30
0
40
3.2499999999999929
210
-3.3990776836172338e-33
220
8.4909021903931415e-49
230
1
0
CIRCLE
5
351
100
AcDbEntity
8
0
100
AcDbCircle
10
-201.35000610351568
20
-925.19996948242181
30
0
40
3.2499999999999929
210
-3.3990776836172338e-33
220
8.4909021903931415e-49
230
1
0
CIRCLE
5
352
100
AcDbEntity
8
0
100
AcDbCircle
10
-246.35000610351562
20
-710.74996948242165
30
0
40
2.1169999999999995
210
-3.3990776836172023e-33
220
-2.4651903288156624e-32
230
1
0
CIRCLE
5
353
100
AcDbEntity
8
0
100
AcDbCircle
10
-156.3500061035156
20
-710.74996948242165
30
0
40
2.1169999999999995
210
-3.3990776836171968e-33
220
-2.4651903288156624e-32
230
1
0
CIRCLE
5
354
100
AcDbEntity
8
0
100
AcDbCircle
10
-246.35000610351562
20
-800.74996948242176
30
0
40
2.1169999999999995
210
-3.3990776836172023e-33
220
-2.4651903288156624e-32
230
1
0
CIRCLE
5
355
100
AcDbEntity
8
0
100
AcDbCircle
10
-156.3500061035156
20
-800.74996948242176
30
0
40
2.1169999999999995
210
-3.3990776836171968e-33
220
-2.4651903288156624e-32
230
1
0
LWPOLYLINE
5
356
100
AcDbEntity
8
0
100
AcDbPolyline
90
4
70
1
43
0.0
10
-391.35000610351562
20
-931.54996948242183
10
-11.350006103515611
20
-931.54996948242183
10
-11.350006103515485
20
-592.69996948242181
10
-391.35000610351562
20
-592.69996948242169
0
CIRCLE
5
357
100
AcDbEntity
8
0
100
AcDbCircle
10
-17.700006103515566
20
-850.01246948242169
30
0
40
3.2500000000000306
210
8.2296189395867554e-33
220
2.4651903288156619e-32
230
1
0
CIRCLE
5
358
100
AcDbEntity
8
0
100
AcDbCircle
10
-17.700006103515499
20
-686.93746948242176
30
0
40
3.2499999999999902
210
8.2296189395865173e-33
220
2.7405747698381753e-80
230
1
0
CIRCLE
5
359
100
AcDbEntity
8
0
100
AcDbCircle
10
-17.700006103515527
20
-768.47496948242178
30
0
40
3.25
210
8.2296189395865775e-33
220
2.7405747698381944e-80
230
1
0
CIRCLE
5
360
100
AcDbEntity
8
0
100
AcDbCircle
10
-211.35000610351568
20
-843.74996948242165
30
7.882865059293861e-17
40
3.1749999999999994
210
-3.399077683617229e-33
220
8.4909021903931111e-49
230
1
0
CIRCLE
5
361
100
AcDbEntity
8
0
100
AcDbCircle
10
-191.35000610351568
20
-843.74996948242165
30
7.882865059293861e-17
40
3.1749999999999994
210
-3.399077683617229e-33
220
8.4909021903931111e-49
230
1
0
ENDSEC
0
SECTION
2
OBJECTS
0
DICTIONARY
5
C
100
AcDbDictionary
3
ACAD_GROUP
350
D
3
ACAD_MLINESTYLE
350
17
0
DICTIONARY
5
D
100
AcDbDictionary
0
DICTIONARY
5
1A
330
C
100
AcDbDictionary
0
DICTIONARY
5
17
100
AcDbDictionary
0
ENDSEC
0
EOF
